<svg width="187" height="81" viewBox="0 0 187 81" fill="none" xmlns="http://www.w3.org/2000/svg">
<path d="M1.99609 37.293C1.7487 37.2669 1.5599 37.1562 1.42969 36.9609C1.29948 36.7656 1.2474 36.5508 1.27344 36.3164C1.33854 35.9128 1.46224 35.5417 1.64453 35.2031C1.82682 34.8646 1.95703 34.6107 2.03516 34.4414C2.1263 34.2721 2.21745 34.0833 2.30859 33.875L3.05078 32.1562L11.0781 8.11328L19.7109 24.793L28.0898 8.11328L38.1094 37H27.6211L22.7773 22.0781L15.2773 37.7031L7.38672 23.6406L4.65234 32.1758C4.22266 33.1263 3.91667 33.9336 3.73438 34.5977C3.55208 35.2617 3.40234 35.776 3.28516 36.1406C3.02474 36.9609 2.59505 37.3451 1.99609 37.293ZM43.8711 40.5547L43.9297 42.5078C43.9297 42.8594 43.832 43.1263 43.6367 43.3086C43.4544 43.5039 43.2331 43.6016 42.9727 43.6016C42.7122 43.6016 42.5039 43.5104 42.3477 43.3281C42.2044 43.1589 42.1328 42.9701 42.1328 42.7617C42.1328 42.5534 42.1458 42.3646 42.1719 42.1953L42.2891 41.6289C42.3411 41.2122 42.3672 40.2617 42.3672 38.7773V13.3086C42.3672 12.319 42.3542 11.6549 42.3281 11.3164L42.25 10.5938C42.237 10.4635 42.2305 10.3073 42.2305 10.125C42.2305 9.47396 42.4909 9.14844 43.0117 9.14844C43.2331 9.14844 43.4414 9.22656 43.6367 9.38281C43.8451 9.53906 43.9492 9.80599 43.9492 10.1836L43.8711 12.6641V40.5547ZM53.8711 33.4844C52.582 32.2214 51.5534 30.6979 50.7852 28.9141C50.0299 27.1172 49.6523 25.1641 49.6523 23.0547C49.6523 20.9323 50.0104 19.0312 50.7266 17.3516C51.4557 15.6589 52.4583 14.194 53.7344 12.957C56.4688 10.3268 59.8997 9.01172 64.0273 9.01172C68.1289 9.01172 71.4883 10.3073 74.1055 12.8984C76.7617 15.5286 78.0898 18.9401 78.0898 23.1328C78.0898 27.3125 76.7292 30.75 74.0078 33.4453C72.3021 35.112 70.2057 36.2643 67.7188 36.9023C66.4818 37.2148 65.043 37.3711 63.4023 37.3711C61.7747 37.3711 60.1016 37.0391 58.3828 36.375C56.6641 35.6979 55.1602 34.7344 53.8711 33.4844ZM64.0078 10.4375C63.2917 10.4375 62.6211 10.4896 61.9961 10.5938V35.7891C62.5951 35.8932 63.2656 35.9453 64.0078 35.9453C67.4844 35.9453 70.4141 34.7865 72.7969 32.4688C75.2839 30.0599 76.5273 26.9479 76.5273 23.1328C76.5273 19.5 75.362 16.4792 73.0312 14.0703C70.6745 11.6484 67.6667 10.4375 64.0078 10.4375Z" fill="#0FF1B3"/>
<path d="M82.0273 15.418H87.0664V24.3594L92 20.7852C92.4688 20.4336 92.8438 20.0938 93.125 19.7656C93.4062 19.4375 93.6445 19.2734 93.8398 19.2734C94.1914 19.2734 94.3672 19.418 94.3672 19.707C94.3672 19.9258 94.2344 20.1445 93.9688 20.3633L90.9805 22.6719L95.293 32H90.0547L87.0664 25.3906V32H82.0273V15.418ZM96.3477 25.6719C96.3477 24.7344 96.5156 23.8828 96.8516 23.1172C97.1953 22.3438 97.6641 21.6719 98.2578 21.1016C99.5391 19.8828 101.148 19.2734 103.086 19.2734C105.062 19.2734 106.672 19.9062 107.914 21.1719C109.102 22.3672 109.695 23.8789 109.695 25.707C109.695 27.543 109.086 29.0781 107.867 30.3125C106.609 31.5859 105 32.2227 103.039 32.2227C101.125 32.2227 99.5391 31.6172 98.2812 30.4062C96.9922 29.1562 96.3477 27.5781 96.3477 25.6719ZM102.711 31.3438C102.773 31.3516 102.836 31.3555 102.898 31.3555H103.062C104.641 31.3555 105.965 30.8672 107.035 29.8906C108.176 28.8359 108.746 27.4531 108.746 25.7422C108.746 24.0703 108.211 22.7148 107.141 21.6758C106.086 20.6445 104.723 20.1289 103.051 20.1289H102.875C102.82 20.1289 102.766 20.1328 102.711 20.1406V31.3438ZM121.578 31.3555C120.602 31.9336 119.566 32.2227 118.473 32.2227C117.387 32.2227 116.43 32.0625 115.602 31.7422C114.781 31.4141 114.078 30.9609 113.492 30.3828C112.273 29.1719 111.664 27.5977 111.664 25.6602C111.664 23.8633 112.266 22.3672 113.469 21.1719C114.75 19.9062 116.422 19.2734 118.484 19.2734C119.578 19.2734 120.609 19.5117 121.578 19.9883V15.418H126.406V32H121.578V31.3555ZM118.25 20.1289C118.008 20.1289 117.777 20.1445 117.559 20.1758V31.2852C117.84 31.332 118.145 31.3555 118.473 31.3555C119.559 31.3555 120.594 31.0117 121.578 30.3242V21.0312C120.523 20.4297 119.414 20.1289 118.25 20.1289ZM134.34 32.2227C131.598 32.2227 130.227 30.8828 130.227 28.2031V19.4844H135.242V30.957C135.32 30.9961 135.418 31.0156 135.535 31.0156H135.922C136.547 31.0156 137.289 30.5938 138.148 29.75C138.406 29.4922 138.648 29.2109 138.875 28.9062V19.4844H143.914V32H138.875V30.1953C137.602 31.5469 136.09 32.2227 134.34 32.2227ZM145.766 19.4844H151.074L154.074 25.7891L157.613 18.9453L161.305 25.8711L162.98 22.0742C163.387 21.1445 163.629 20.5 163.707 20.1406C163.793 19.7734 163.891 19.5391 164 19.4375C164.109 19.3281 164.238 19.2734 164.387 19.2734C164.535 19.2734 164.652 19.3281 164.738 19.4375C164.832 19.5469 164.879 19.6445 164.879 19.7305C164.879 19.8086 164.871 19.8867 164.855 19.9648C164.848 20.0352 164.816 20.1523 164.762 20.3164C164.707 20.4727 164.617 20.6875 164.492 20.9609L159.441 32.5273L155.527 25.0391L151.742 32.5273L145.766 19.4844ZM174.758 31.2266C173.758 31.8906 172.648 32.2227 171.43 32.2227C169.812 32.2227 168.516 31.8164 167.539 31.0039C166.523 30.168 166.016 29.0078 166.016 27.5234C166.016 26.2109 166.52 25.1328 167.527 24.2891C168.559 23.4375 169.914 23.0117 171.594 23.0117C172.719 23.0117 173.773 23.2266 174.758 23.6562V20.4336C174.047 20.2305 173.418 20.1289 172.871 20.1289C172.332 20.1289 171.875 20.1523 171.5 20.1992C171.125 20.2461 170.77 20.3164 170.434 20.4102C169.707 20.6133 169.156 20.8867 168.781 21.2305C168.562 21.4336 168.363 21.5352 168.184 21.5352C168.004 21.5352 167.867 21.4922 167.773 21.4062C167.68 21.3125 167.633 21.2109 167.633 21.1016C167.633 20.9922 167.652 20.8945 167.691 20.8086C167.73 20.7148 167.805 20.6211 167.914 20.5273C168.148 20.3242 168.539 20.1211 169.086 19.918C170.219 19.4883 171.355 19.2734 172.496 19.2734C175.965 19.2734 178.18 20.1016 179.141 21.7578C179.562 22.4922 179.773 23.457 179.773 24.6523V32H174.758V31.2266ZM174.758 24.5703C173.773 24.0938 172.793 23.8555 171.816 23.8555C171.66 23.8555 171.512 23.8672 171.371 23.8906V31.3438C171.41 31.3516 171.453 31.3555 171.5 31.3555C171.547 31.3555 171.594 31.3555 171.641 31.3555C172.711 31.3555 173.75 30.9766 174.758 30.2188V24.5703Z" fill="black"/>
<path d="M8.336 59.648C8.95467 59.648 9.39733 59.4347 9.664 59.008C10.0587 58.3573 10.256 56.752 10.256 54.192V50.176C10.256 48.6507 10.1067 47.5147 9.808 46.768C9.50933 46.0213 9.01867 45.648 8.336 45.648C7.856 45.648 7.48267 45.8187 7.216 46.16C6.736 46.7787 6.496 48.304 6.496 50.736V54.912C6.496 56.6827 6.62933 57.9147 6.896 58.608C7.17333 59.3013 7.65333 59.648 8.336 59.648ZM9.984 67.184C8.59733 67.184 7.61067 66.8 7.024 66.032C6.43733 65.2747 6.11733 63.9947 6.064 62.192C5.41333 62.0853 4.82667 61.9147 4.304 61.68C3.78133 61.4453 3.33333 61.1733 2.96 60.864C2.58667 60.544 2.26133 60.16 1.984 59.712C1.70667 59.264 1.47733 58.7947 1.296 58.304C1.12533 57.8133 0.986667 57.2587 0.88 56.64C0.773333 56.0107 0.698667 55.3867 0.656 54.768C0.624 54.1493 0.608 53.456 0.608 52.688C0.608 51.408 0.672 50.2933 0.8 49.344C0.938667 48.3947 1.18933 47.504 1.552 46.672C1.91467 45.8293 2.39467 45.1467 2.992 44.624C3.6 44.1013 4.37867 43.6907 5.328 43.392C6.288 43.0933 7.41867 42.944 8.72 42.944C9.616 42.944 10.4213 43.0293 11.136 43.2C11.8507 43.36 12.464 43.584 12.976 43.872C13.488 44.16 13.9307 44.5333 14.304 44.992C14.688 45.4507 14.992 45.9413 15.216 46.464C15.4507 46.976 15.6373 47.5787 15.776 48.272C15.9147 48.9653 16.0107 49.6533 16.064 50.336C16.1173 51.0187 16.144 51.792 16.144 52.656C16.144 53.68 16.1013 54.5973 16.016 55.408C15.9307 56.208 15.776 56.976 15.552 57.712C15.328 58.4373 15.0347 59.0667 14.672 59.6C14.32 60.1333 13.8613 60.6027 13.296 61.008C12.7413 61.4027 12.0853 61.712 11.328 61.936V62.016C11.328 62.8693 11.4507 63.4347 11.696 63.712C11.952 63.9893 12.3413 64.128 12.864 64.128C13.0133 64.128 13.152 64.112 13.28 64.08C13.4187 64.0587 13.5413 64.0267 13.648 63.984C13.7547 63.9413 13.856 63.888 13.952 63.824V66C13.9413 66.0107 13.9253 66.0267 13.904 66.048C13.0293 66.8053 11.7227 67.184 9.984 67.184ZM31.3264 62L30.6064 59.008H26.0624L25.4544 62H20.7504L25.6304 44.544L25.2464 43.248H31.8544L37.1984 62H31.3264ZM28.1264 48.752L26.7184 55.744H29.8224L28.1264 48.752ZM64.2354 62H52.8914V43.248H63.9954L63.6754 47.024L58.1874 46.864V50.48H62.5074V54.224L58.1874 53.904V58.16L64.2354 58V62ZM75.3522 62H70.1842V51.648L69.2242 51.056V49.344L72.6642 48.4H75.3842V50.464L75.5762 50.224C75.7042 50.0533 75.8909 49.8507 76.1362 49.616C76.3922 49.3813 76.6749 49.152 76.9842 48.928C77.2936 48.6933 77.6616 48.496 78.0882 48.336C78.5256 48.1653 78.9522 48.08 79.3682 48.08C80.8296 48.08 81.8589 48.48 82.4562 49.28C83.0642 50.08 83.3682 51.4187 83.3682 53.296C83.3682 53.36 83.3682 53.456 83.3682 53.584C83.3576 53.712 83.3522 53.8133 83.3522 53.888V62H78.0722V53.424C78.1042 52.4213 77.6776 51.92 76.7922 51.92C76.7282 51.92 76.6642 51.9253 76.6002 51.936C76.5469 51.9467 76.4936 51.9573 76.4402 51.968C76.3976 51.9787 76.3442 52 76.2802 52.032C76.2269 52.0533 76.1789 52.0747 76.1362 52.096C76.0936 52.1067 76.0456 52.1333 75.9922 52.176C75.9389 52.208 75.8962 52.2347 75.8642 52.256C75.8322 52.2773 75.7842 52.3147 75.7202 52.368C75.6669 52.4107 75.6242 52.4427 75.5922 52.464C75.5709 52.4853 75.5282 52.5227 75.4642 52.576C75.4109 52.6187 75.3736 52.6507 75.3522 52.672V62ZM95.8517 67.648C95.0197 67.648 94.0811 67.456 93.0357 67.072C91.9904 66.6987 91.3131 66.3413 91.0037 66L92.0117 63.808C92.2784 64.0107 92.7104 64.1973 93.3077 64.368C93.9051 64.5387 94.4171 64.624 94.8437 64.624C95.2704 64.624 95.6384 64.5653 95.9477 64.448C96.2677 64.3413 96.5131 64.2027 96.6837 64.032C96.8544 63.872 96.9931 63.6693 97.0997 63.424C97.2064 63.1893 97.2704 62.976 97.2917 62.784C97.3237 62.592 97.3451 62.3787 97.3557 62.144V60.784C96.4491 61.7227 95.3451 62.192 94.0437 62.192C92.2837 62.192 90.9931 61.5893 90.1717 60.384C89.3504 59.1787 88.9397 57.504 88.9397 55.36C88.9397 54.3573 89.0517 53.4347 89.2757 52.592C89.4997 51.7387 89.8251 50.992 90.2517 50.352C90.6891 49.7013 91.2544 49.1947 91.9477 48.832C92.6411 48.4587 93.4251 48.272 94.2997 48.272C95.6224 48.272 96.7691 48.5653 97.7397 49.152L98.0117 48.4H100.46L103.468 48.544V50.048L102.508 50.72V61.408C102.508 65.568 100.289 67.648 95.8517 67.648ZM96.3637 59.28C96.6837 59.28 97.0144 59.1893 97.3557 59.008V50.576C97.0997 50.5227 96.8651 50.496 96.6517 50.496C95.2331 50.5067 94.5184 51.6 94.5077 53.776V56.256C94.5077 56.9387 94.5984 57.5253 94.7797 58.016C95.0997 58.8587 95.6277 59.28 96.3637 59.28ZM109.059 62V51.648L108.099 51.056V49.344L111.539 48.4H114.211V62H109.059ZM111.379 46.928L108.755 44.288V43.728L111.379 41.104H111.987L114.723 43.728V44.288L111.987 46.928H111.379ZM125.906 62H120.738V51.648L119.778 51.056V49.344L123.218 48.4H125.938V50.464L126.13 50.224C126.258 50.0533 126.445 49.8507 126.69 49.616C126.946 49.3813 127.229 49.152 127.538 48.928C127.847 48.6933 128.215 48.496 128.642 48.336C129.079 48.1653 129.506 48.08 129.922 48.08C131.383 48.08 132.413 48.48 133.01 49.28C133.618 50.08 133.922 51.4187 133.922 53.296C133.922 53.36 133.922 53.456 133.922 53.584C133.911 53.712 133.906 53.8133 133.906 53.888V62H128.626V53.424C128.658 52.4213 128.231 51.92 127.346 51.92C127.282 51.92 127.218 51.9253 127.154 51.936C127.101 51.9467 127.047 51.9573 126.994 51.968C126.951 51.9787 126.898 52 126.834 52.032C126.781 52.0533 126.733 52.0747 126.69 52.096C126.647 52.1067 126.599 52.1333 126.546 52.176C126.493 52.208 126.45 52.2347 126.418 52.256C126.386 52.2773 126.338 52.3147 126.274 52.368C126.221 52.4107 126.178 52.4427 126.146 52.464C126.125 52.4853 126.082 52.5227 126.018 52.576C125.965 52.6187 125.927 52.6507 125.906 52.672V62ZM147.429 53.728C147.429 52.3733 147.36 51.4133 147.221 50.848C147.083 50.2827 146.827 50 146.453 50C146.133 50 145.872 50.0587 145.669 50.176C145.467 50.2827 145.317 50.4587 145.221 50.704C145.125 50.9387 145.061 51.184 145.029 51.44C145.008 51.6853 144.997 52 144.997 52.384V53.728H147.429ZM146.149 62.336C144.955 62.336 143.915 62.1547 143.029 61.792C142.155 61.4293 141.461 60.9227 140.949 60.272C140.448 59.6213 140.08 58.8907 139.845 58.08C139.611 57.2587 139.493 56.3467 139.493 55.344C139.493 52.9547 140.101 51.1467 141.317 49.92C142.533 48.6933 144.235 48.08 146.421 48.08C148.523 48.08 150.027 48.576 150.933 49.568C151.84 50.5493 152.293 52.1333 152.293 54.32V56.096H144.981V56.4C144.981 57.0293 145.045 57.5467 145.173 57.952C145.312 58.3573 145.509 58.656 145.765 58.848C146.021 59.04 146.283 59.168 146.549 59.232C146.816 59.296 147.141 59.328 147.525 59.328C147.899 59.328 148.299 59.28 148.725 59.184C149.163 59.088 149.6 58.9387 150.037 58.736C150.485 58.5333 150.859 58.2933 151.157 58.016L152.101 59.632C151.707 60.272 151.125 60.8107 150.357 61.248C149.6 61.6747 148.869 61.9627 148.165 62.112C147.461 62.2613 146.789 62.336 146.149 62.336ZM165.531 53.728C165.531 52.3733 165.461 51.4133 165.323 50.848C165.184 50.2827 164.928 50 164.555 50C164.235 50 163.973 50.0587 163.771 50.176C163.568 50.2827 163.419 50.4587 163.323 50.704C163.227 50.9387 163.163 51.184 163.131 51.44C163.109 51.6853 163.099 52 163.099 52.384V53.728H165.531ZM164.251 62.336C163.056 62.336 162.016 62.1547 161.131 61.792C160.256 61.4293 159.563 60.9227 159.051 60.272C158.549 59.6213 158.181 58.8907 157.947 58.08C157.712 57.2587 157.595 56.3467 157.595 55.344C157.595 52.9547 158.203 51.1467 159.419 49.92C160.635 48.6933 162.336 48.08 164.523 48.08C166.624 48.08 168.128 48.576 169.035 49.568C169.941 50.5493 170.395 52.1333 170.395 54.32V56.096H163.083V56.4C163.083 57.0293 163.147 57.5467 163.275 57.952C163.413 58.3573 163.611 58.656 163.867 58.848C164.123 59.04 164.384 59.168 164.651 59.232C164.917 59.296 165.243 59.328 165.627 59.328C166 59.328 166.4 59.28 166.827 59.184C167.264 59.088 167.701 58.9387 168.139 58.736C168.587 58.5333 168.96 58.2933 169.259 58.016L170.203 59.632C169.808 60.272 169.227 60.8107 168.459 61.248C167.701 61.6747 166.971 61.9627 166.267 62.112C165.563 62.2613 164.891 62.336 164.251 62.336ZM181.616 62H176.448V51.648L175.488 51.056V49.248L178.928 48.4H180.224L180.688 52.208C181.125 49.5947 182.528 48.288 184.896 48.288C185.163 48.288 185.44 48.336 185.728 48.432L185.184 54.128C184.96 53.9253 184.469 53.824 183.712 53.824C182.624 53.824 181.925 54.112 181.616 54.688V62Z" fill="#EAB945"/>
</svg>
