<svg width="32" height="20" viewBox="0 0 32 20" fill="none" xmlns="http://www.w3.org/2000/svg">
<rect width="32" height="20" rx="2" fill="#FFDF1B"/>
<path d="M1.37354 15.1099C1.28076 15.1001 1.20996 15.0586 1.16113 14.9854C1.1123 14.9121 1.09277 14.8315 1.10254 14.7437C1.12695 14.5923 1.17334 14.4531 1.2417 14.3262C1.31006 14.1992 1.35889 14.104 1.38818 14.0405C1.42236 13.9771 1.45654 13.9062 1.49072 13.8281L1.76904 13.1836L4.7793 4.16748L8.0166 10.4224L11.1587 4.16748L14.916 15H10.9829L9.1665 9.4043L6.354 15.2637L3.39502 9.99023L2.36963 13.1909C2.2085 13.5474 2.09375 13.8501 2.02539 14.0991C1.95703 14.3481 1.90088 14.541 1.85693 14.6777C1.75928 14.9854 1.59814 15.1294 1.37354 15.1099ZM17.0767 16.333L17.0986 17.0654C17.0986 17.1973 17.062 17.2974 16.9888 17.3657C16.9204 17.439 16.8374 17.4756 16.7397 17.4756C16.6421 17.4756 16.564 17.4414 16.5054 17.373C16.4517 17.3096 16.4248 17.2388 16.4248 17.1606C16.4248 17.0825 16.4297 17.0117 16.4395 16.9482L16.4834 16.7358C16.5029 16.5796 16.5127 16.2231 16.5127 15.6665V6.11572C16.5127 5.74463 16.5078 5.49561 16.498 5.36865L16.4688 5.09766C16.4639 5.04883 16.4614 4.99023 16.4614 4.92188C16.4614 4.67773 16.5591 4.55566 16.7544 4.55566C16.8374 4.55566 16.9155 4.58496 16.9888 4.64355C17.0669 4.70215 17.106 4.80225 17.106 4.94385L17.0767 5.87402V16.333ZM20.8267 13.6816C20.3433 13.208 19.9575 12.6367 19.6694 11.9678C19.3862 11.2939 19.2446 10.5615 19.2446 9.77051C19.2446 8.97461 19.3789 8.26172 19.6475 7.63184C19.9209 6.99707 20.2969 6.44775 20.7754 5.98389C21.8008 4.99756 23.0874 4.50439 24.6353 4.50439C26.1733 4.50439 27.4331 4.99023 28.4146 5.96191C29.4106 6.94824 29.9087 8.22754 29.9087 9.7998C29.9087 11.3672 29.3984 12.6562 28.3779 13.667C27.7383 14.292 26.9521 14.7241 26.0195 14.9634C25.5557 15.0806 25.0161 15.1392 24.4009 15.1392C23.7905 15.1392 23.1631 15.0146 22.5186 14.7656C21.874 14.5117 21.3101 14.1504 20.8267 13.6816ZM24.6279 5.03906C24.3594 5.03906 24.1079 5.05859 23.8735 5.09766V14.5459C24.0981 14.585 24.3496 14.6045 24.6279 14.6045C25.9316 14.6045 27.0303 14.1699 27.9238 13.3008C28.8564 12.3975 29.3228 11.2305 29.3228 9.7998C29.3228 8.4375 28.8857 7.30469 28.0117 6.40137C27.1279 5.49316 26 5.03906 24.6279 5.03906Z" fill="black"/>
</svg>
