<svg xmlns="http://www.w3.org/2000/svg" width="102" height="102" fill="none"><g fill="#EAB945"><path d="M41.018 43.435c-4.252-8.15-10.933-14.933-18.926-19.406a427.29 427.29 0 0 0 21.795-1.426c2.243-.205 2.009-3.699-.244-3.493a430.883 430.883 0 0 1-29.125 1.65c-1.661.04-2.307 2.715-.658 3.317a44.693 44.693 0 0 1 24.263 21.33c1.04 2.002 3.933.012 2.895-1.972Z"/><path d="M88.876 77.791c-7.485-17.335-20.679-31.507-36.27-41.925a126.902 126.902 0 0 0-13.776-7.991c-2.022-1.007-3.572 2.134-1.55 3.14 16.084 8.04 30.728 19.548 40.897 34.505a81.116 81.116 0 0 1 7.395 13.44c.88 2.052 4.195.902 3.304-1.169Z"/></g></svg>