<svg width="102" height="102" viewBox="0 0 102 102" fill="none" xmlns="http://www.w3.org/2000/svg">
<g id="arrow (1) 1">
<g id="Group">
<path id="Vector" d="M41.0179 43.4347C36.7665 35.2856 30.0853 28.5019 22.0924 24.0287C29.3703 23.7407 36.6349 23.2622 43.8869 22.6029C46.1299 22.3985 45.8956 18.9045 43.643 19.1096C33.9576 19.9866 24.2401 20.5407 14.5184 20.7602C12.8569 20.7997 12.2115 23.4751 13.8604 24.0773C24.3241 27.9093 32.9761 35.5216 38.1234 45.4062C39.1624 47.4093 42.0555 45.4187 41.0179 43.4347Z" fill="#EAB945"/>
<path id="Vector_2" d="M88.8763 77.7914C81.3915 60.4563 68.1973 46.284 52.6062 35.8658C48.182 32.9131 43.5866 30.2496 38.8297 27.8749C36.8082 26.8682 35.2579 30.0085 37.2794 31.0151C53.3645 39.0554 68.0083 50.5631 78.1773 65.5205C81.0557 69.7577 83.5406 74.2518 85.5718 78.9594C86.4516 81.0119 89.7669 79.8622 88.8763 77.7914Z" fill="#EAB945"/>
</g>
</g>
</svg>
