<svg xmlns="http://www.w3.org/2000/svg" width="600" height="93" fill="none"><circle cx="37" cy="54" r="37" fill="#EAB945"/><path fill="#4C4E51" d="M26.048 71.522c-1.701 0-3.016-.464-3.944-1.392-.928-.967-1.392-2.3-1.392-4.002V35.504c0-1.74.464-3.074 1.392-4.002.967-.928 2.3-1.392 4.002-1.392h14.268c4.64 0 8.217 1.199 10.73 3.596 2.552 2.359 3.828 5.626 3.828 9.802 0 4.176-1.276 7.463-3.828 9.86-2.513 2.359-6.09 3.538-10.73 3.538h-8.99v9.222c0 1.701-.445 3.035-1.334 4.002-.89.928-2.223 1.392-4.002 1.392Zm5.336-22.794h7.134c2.01 0 3.557-.425 4.64-1.276 1.083-.89 1.624-2.204 1.624-3.944 0-1.779-.541-3.093-1.624-3.944-1.083-.85-2.63-1.276-4.64-1.276h-7.134v10.44Zm32.539 22.794c-1.701 0-3.016-.445-3.944-1.334-.89-.89-1.334-2.185-1.334-3.886V47.104c0-1.663.425-2.939 1.276-3.828.89-.89 2.146-1.334 3.77-1.334s2.861.445 3.712 1.334c.85.89 1.276 2.165 1.276 3.828v2.378h-.58c.387-2.32 1.373-4.157 2.958-5.51 1.624-1.353 3.635-2.069 6.032-2.146 1.121-.039 1.953.251 2.494.87.58.58.89 1.682.928 3.306 0 1.392-.29 2.494-.87 3.306-.58.812-1.682 1.295-3.306 1.45L75 50.874c-2.05.193-3.538.773-4.466 1.74-.928.928-1.392 2.32-1.392 4.176v9.512c0 1.701-.445 2.997-1.334 3.886-.89.89-2.185 1.334-3.886 1.334Zm33.803.116c-3.171 0-5.936-.6-8.294-1.798-2.36-1.199-4.196-2.92-5.51-5.162-1.315-2.243-1.972-4.891-1.972-7.946 0-2.32.367-4.389 1.102-6.206.734-1.856 1.798-3.422 3.19-4.698 1.392-1.315 3.054-2.3 4.988-2.958 1.933-.696 4.098-1.044 6.496-1.044 3.17 0 5.935.6 8.294 1.798 2.358 1.199 4.176 2.92 5.452 5.162 1.314 2.204 1.972 4.853 1.972 7.946 0 2.281-.368 4.35-1.102 6.206-.735 1.856-1.798 3.441-3.19 4.756-1.354 1.276-3.016 2.262-4.988 2.958-1.934.657-4.08.986-6.438.986Zm0-7.598c1.044 0 1.972-.251 2.784-.754.812-.541 1.43-1.334 1.856-2.378.464-1.083.696-2.475.696-4.176 0-2.59-.503-4.447-1.508-5.568-1.006-1.16-2.282-1.74-3.828-1.74-1.044 0-1.972.251-2.784.754-.812.503-1.45 1.295-1.914 2.378-.464 1.044-.696 2.436-.696 4.176 0 2.552.502 4.408 1.508 5.568 1.005 1.16 2.3 1.74 3.886 1.74Zm31.584 7.598c-2.436 0-4.601-.6-6.496-1.798-1.856-1.199-3.325-2.92-4.408-5.162-1.044-2.243-1.566-4.891-1.566-7.946 0-3.132.522-5.8 1.566-8.004 1.083-2.204 2.552-3.905 4.408-5.104 1.895-1.199 4.06-1.798 6.496-1.798 2.127 0 4.041.503 5.742 1.508 1.702 1.005 2.842 2.3 3.422 3.886h-.638V34.808c0-1.701.445-2.997 1.334-3.886.89-.89 2.166-1.334 3.828-1.334 1.624 0 2.881.445 3.77 1.334.928.89 1.392 2.185 1.392 3.886v31.494c0 1.701-.444 2.997-1.334 3.886-.85.89-2.107 1.334-3.77 1.334-1.624 0-2.88-.445-3.77-1.334-.889-.89-1.334-2.185-1.334-3.886v-3.306l.638 2.842c-.541 1.74-1.682 3.151-3.422 4.234-1.701 1.044-3.654 1.566-5.858 1.566Zm3.306-7.598c1.044 0 1.972-.251 2.784-.754.812-.541 1.431-1.334 1.856-2.378.464-1.083.696-2.475.696-4.176 0-2.59-.502-4.447-1.508-5.568-1.005-1.16-2.281-1.74-3.828-1.74-1.044 0-1.972.251-2.784.754-.812.503-1.45 1.295-1.914 2.378-.464 1.044-.696 2.436-.696 4.176 0 2.552.503 4.408 1.508 5.568 1.006 1.16 2.301 1.74 3.886 1.74Zm32.197 7.598c-2.475 0-4.505-.445-6.09-1.334-1.585-.928-2.784-2.3-3.596-4.118-.773-1.817-1.16-4.118-1.16-6.902v-12.18c0-1.701.445-2.977 1.334-3.828.889-.89 2.165-1.334 3.828-1.334 1.663 0 2.939.445 3.828 1.334.889.85 1.334 2.127 1.334 3.828v12.47c0 1.392.29 2.436.87 3.132.58.696 1.489 1.044 2.726 1.044 1.392 0 2.533-.503 3.422-1.508.889-1.005 1.334-2.34 1.334-4.002V47.104c0-1.701.445-2.977 1.334-3.828.889-.89 2.165-1.334 3.828-1.334 1.663 0 2.939.445 3.828 1.334.889.85 1.334 2.127 1.334 3.828v19.198c0 3.48-1.663 5.22-4.988 5.22-1.624 0-2.881-.445-3.77-1.334-.889-.89-1.334-2.185-1.334-3.886v-3.364l.928 2.842c-.851 1.895-2.049 3.345-3.596 4.35-1.508 1.005-3.306 1.508-5.394 1.508Zm38.72 0c-3.209 0-6.013-.6-8.41-1.798-2.359-1.199-4.195-2.92-5.51-5.162-1.315-2.281-1.972-4.95-1.972-8.004 0-2.32.367-4.389 1.102-6.206.735-1.856 1.798-3.422 3.19-4.698 1.431-1.276 3.113-2.243 5.046-2.9 1.972-.696 4.157-1.044 6.554-1.044 1.121 0 2.301.116 3.538.348 1.237.193 2.513.58 3.828 1.16.928.348 1.566.89 1.914 1.624.387.696.541 1.45.464 2.262a4.372 4.372 0 0 1-.696 2.204 2.899 2.899 0 0 1-1.682 1.334c-.696.232-1.489.135-2.378-.29a6.936 6.936 0 0 0-1.972-.638 8.34 8.34 0 0 0-1.914-.232c-1.044 0-1.972.155-2.784.464a5.097 5.097 0 0 0-1.972 1.392c-.541.58-.967 1.315-1.276 2.204-.271.89-.406 1.895-.406 3.016 0 2.243.561 4.002 1.682 5.278 1.121 1.276 2.707 1.914 4.756 1.914.619 0 1.257-.058 1.914-.174a10.023 10.023 0 0 0 1.972-.696c.889-.425 1.682-.503 2.378-.232.696.232 1.257.677 1.682 1.334.425.657.657 1.392.696 2.204.039.773-.135 1.527-.522 2.262-.387.696-1.044 1.218-1.972 1.566-1.276.58-2.533.967-3.77 1.16a18.31 18.31 0 0 1-3.48.348Zm28.726 0c-2.9 0-5.297-.445-7.192-1.334-1.856-.89-3.248-2.223-4.176-4.002-.928-1.817-1.392-4.08-1.392-6.786v-9.454h-1.972c-1.237 0-2.204-.329-2.9-.986-.657-.657-.986-1.605-.986-2.842s.329-2.165.986-2.784c.696-.657 1.663-.986 2.9-.986h1.972v-3.596c0-1.701.445-2.997 1.334-3.886.89-.89 2.166-1.334 3.828-1.334 1.663 0 2.939.445 3.828 1.334.89.89 1.334 2.185 1.334 3.886v3.596h4.756c1.276 0 2.243.329 2.9.986.696.619 1.044 1.547 1.044 2.784 0 1.237-.348 2.185-1.044 2.842-.657.657-1.624.986-2.9.986h-4.756v9.106c0 1.43.329 2.494.986 3.19.696.657 1.779.986 3.248.986.542 0 1.064-.058 1.566-.174a6.227 6.227 0 0 1 1.392-.174c.619-.039 1.122.155 1.508.58.387.387.58 1.295.58 2.726 0 1.16-.174 2.146-.522 2.958-.348.773-.966 1.334-1.856 1.682-.541.193-1.276.348-2.204.464-.928.155-1.682.232-2.262.232ZM264.85 71c-1.817 0-3.209-.464-4.176-1.392-.928-.967-1.392-2.34-1.392-4.118V35.62c0-1.779.464-3.132 1.392-4.06.967-.967 2.359-1.45 4.176-1.45h11.368c7.115 0 12.606 1.779 16.472 5.336 3.906 3.557 5.858 8.584 5.858 15.08 0 3.248-.502 6.148-1.508 8.7-1.005 2.513-2.455 4.66-4.35 6.438-1.894 1.74-4.234 3.074-7.018 4.002-2.745.89-5.896 1.334-9.454 1.334H264.85Zm5.104-8.642h5.568c2.05 0 3.809-.251 5.278-.754 1.508-.503 2.746-1.237 3.712-2.204 1.006-.967 1.74-2.185 2.204-3.654.503-1.47.754-3.21.754-5.22 0-4.021-.986-6.98-2.958-8.874-1.972-1.933-4.968-2.9-8.99-2.9h-5.568v23.606Zm49.772 9.28c-3.48 0-6.496-.6-9.048-1.798-2.513-1.237-4.447-2.977-5.8-5.22-1.353-2.243-2.03-4.891-2.03-7.946 0-2.939.638-5.51 1.914-7.714 1.315-2.243 3.093-3.983 5.336-5.22 2.281-1.276 4.872-1.914 7.772-1.914 2.127 0 4.06.348 5.8 1.044 1.74.657 3.229 1.643 4.466 2.958 1.237 1.276 2.165 2.823 2.784 4.64.657 1.817.986 3.847.986 6.09 0 .773-.213 1.353-.638 1.74-.425.348-1.102.522-2.03.522H311.49v-4.872h12.876l-.928.754c0-1.43-.193-2.59-.58-3.48-.387-.89-.967-1.566-1.74-2.03-.735-.464-1.663-.696-2.784-.696-1.199 0-2.243.29-3.132.87-.851.541-1.508 1.353-1.972 2.436-.464 1.083-.696 2.436-.696 4.06v.522c0 2.745.599 4.717 1.798 5.916 1.237 1.16 3.132 1.74 5.684 1.74.851 0 1.817-.097 2.9-.29a20.362 20.362 0 0 0 3.19-.928c1.005-.387 1.875-.445 2.61-.174.735.232 1.295.657 1.682 1.276.425.58.657 1.257.696 2.03.039.735-.135 1.47-.522 2.204-.387.696-1.025 1.237-1.914 1.624a19.715 19.715 0 0 1-4.35 1.392c-1.508.31-3.035.464-4.582.464Zm27.996 0c-1.701 0-3.441-.135-5.22-.406-1.74-.232-3.325-.677-4.756-1.334-.967-.387-1.663-.909-2.088-1.566a4.05 4.05 0 0 1-.58-2.088 3.851 3.851 0 0 1 .638-1.972c.425-.619.967-1.044 1.624-1.276.696-.27 1.469-.251 2.32.058 1.624.58 3.074 1.005 4.35 1.276 1.315.232 2.571.348 3.77.348 1.431 0 2.455-.193 3.074-.58.619-.425.928-.967.928-1.624 0-.58-.213-1.025-.638-1.334-.387-.31-.947-.522-1.682-.638l-6.438-1.044c-2.397-.425-4.253-1.295-5.568-2.61-1.315-1.353-1.972-3.113-1.972-5.278 0-2.01.561-3.731 1.682-5.162 1.16-1.47 2.726-2.59 4.698-3.364 2.011-.812 4.311-1.218 6.902-1.218 1.74 0 3.325.135 4.756.406 1.431.232 2.823.677 4.176 1.334.851.348 1.45.85 1.798 1.508.348.657.483 1.353.406 2.088a4.278 4.278 0 0 1-.754 1.972c-.387.58-.928.986-1.624 1.218-.696.193-1.508.135-2.436-.174-1.276-.503-2.417-.87-3.422-1.102a11.707 11.707 0 0 0-2.726-.348c-1.585 0-2.707.213-3.364.638-.657.425-.986.967-.986 1.624 0 .503.174.928.522 1.276.348.31.889.522 1.624.638l6.438 1.102c2.475.387 4.369 1.237 5.684 2.552 1.353 1.276 2.03 3.016 2.03 5.22 0 3.132-1.199 5.568-3.596 7.308-2.397 1.701-5.587 2.552-9.57 2.552Zm22.509-.116c-1.624 0-2.88-.483-3.77-1.45-.889-.967-1.334-2.359-1.334-4.176V47.568c0-1.817.445-3.21 1.334-4.176.89-.967 2.146-1.45 3.77-1.45 1.663 0 2.939.483 3.828 1.45.928.967 1.392 2.359 1.392 4.176v18.328c0 1.817-.444 3.21-1.334 4.176-.889.967-2.184 1.45-3.886 1.45Zm0-33.698c-1.817 0-3.228-.425-4.234-1.276-.966-.85-1.45-2.088-1.45-3.712 0-1.585.484-2.803 1.45-3.654 1.006-.85 2.417-1.276 4.234-1.276 1.895 0 3.326.425 4.292 1.276.967.85 1.45 2.069 1.45 3.654 0 1.624-.483 2.861-1.45 3.712-.966.85-2.397 1.276-4.292 1.276Zm25.361 44.254c-2.127 0-4.118-.155-5.974-.464-1.856-.27-3.461-.677-4.814-1.218-1.122-.387-1.914-.947-2.378-1.682-.464-.735-.677-1.508-.638-2.32a4.71 4.71 0 0 1 .638-2.204 3.814 3.814 0 0 1 1.682-1.45c.696-.27 1.469-.251 2.32.058 1.701.696 3.248 1.14 4.64 1.334 1.392.232 2.571.348 3.538.348 2.358 0 4.118-.503 5.278-1.508 1.198-.967 1.798-2.494 1.798-4.582v-3.654h.464c-.58 1.624-1.76 2.958-3.538 4.002-1.779 1.005-3.712 1.508-5.8 1.508-2.552 0-4.776-.58-6.67-1.74-1.895-1.199-3.384-2.861-4.466-4.988-1.044-2.127-1.566-4.62-1.566-7.482 0-2.165.309-4.118.928-5.858.618-1.74 1.469-3.229 2.552-4.466a11.296 11.296 0 0 1 4.002-2.842c1.585-.696 3.325-1.044 5.22-1.044 2.165 0 4.098.503 5.8 1.508 1.74 1.005 2.9 2.32 3.48 3.944l-.58 2.378v-2.552c0-1.663.444-2.939 1.334-3.828.928-.89 2.204-1.334 3.828-1.334 1.624 0 2.861.445 3.712 1.334.889.89 1.334 2.165 1.334 3.828v20.068c0 4.95-1.392 8.661-4.176 11.136-2.784 2.513-6.767 3.77-11.948 3.77Zm.406-19.43c1.16 0 2.146-.251 2.958-.754.812-.541 1.45-1.295 1.914-2.262.464-1.005.696-2.204.696-3.596 0-2.088-.503-3.712-1.508-4.872-1.006-1.16-2.359-1.74-4.06-1.74-1.083 0-2.05.27-2.9.812-.851.503-1.508 1.257-1.972 2.262-.426.967-.638 2.146-.638 3.538 0 2.088.502 3.712 1.508 4.872 1.005 1.16 2.339 1.74 4.002 1.74Zm26.852 8.874c-1.624 0-2.88-.445-3.77-1.334-.889-.89-1.334-2.185-1.334-3.886V47.104c0-1.663.426-2.939 1.276-3.828.89-.89 2.146-1.334 3.77-1.334s2.862.445 3.712 1.334c.851.89 1.276 2.165 1.276 3.828v2.726l-.638-2.378c.928-1.817 2.243-3.21 3.944-4.176 1.74-.967 3.712-1.45 5.916-1.45 2.282 0 4.157.445 5.626 1.334 1.47.85 2.572 2.204 3.306 4.06.735 1.817 1.102 4.118 1.102 6.902v12.18c0 1.701-.444 2.997-1.334 3.886-.889.89-2.165 1.334-3.828 1.334-1.662 0-2.938-.445-3.828-1.334-.889-.89-1.334-2.185-1.334-3.886V54.528c0-1.74-.309-2.977-.928-3.712-.58-.735-1.45-1.102-2.61-1.102-1.546 0-2.784.503-3.712 1.508-.928.967-1.392 2.281-1.392 3.944v11.136c0 3.48-1.74 5.22-5.22 5.22Zm45.614.116c-3.48 0-6.496-.6-9.048-1.798-2.513-1.237-4.446-2.977-5.8-5.22-1.353-2.243-2.03-4.891-2.03-7.946 0-2.939.638-5.51 1.914-7.714 1.315-2.243 3.094-3.983 5.336-5.22 2.282-1.276 4.872-1.914 7.772-1.914 2.127 0 4.06.348 5.8 1.044 1.74.657 3.229 1.643 4.466 2.958 1.238 1.276 2.166 2.823 2.784 4.64.658 1.817.986 3.847.986 6.09 0 .773-.212 1.353-.638 1.74-.425.348-1.102.522-2.03.522h-17.748v-4.872h12.876l-.928.754c0-1.43-.193-2.59-.58-3.48-.386-.89-.966-1.566-1.74-2.03-.734-.464-1.662-.696-2.784-.696-1.198 0-2.242.29-3.132.87-.85.541-1.508 1.353-1.972 2.436-.464 1.083-.696 2.436-.696 4.06v.522c0 2.745.6 4.717 1.798 5.916 1.238 1.16 3.132 1.74 5.684 1.74.851 0 1.818-.097 2.9-.29a20.33 20.33 0 0 0 3.19-.928c1.006-.387 1.876-.445 2.61-.174.735.232 1.296.657 1.682 1.276.426.58.658 1.257.696 2.03.039.735-.135 1.47-.522 2.204-.386.696-1.024 1.237-1.914 1.624a19.715 19.715 0 0 1-4.35 1.392c-1.508.31-3.035.464-4.582.464Zm21.906-.116c-1.701 0-3.016-.445-3.944-1.334-.889-.89-1.334-2.185-1.334-3.886V47.104c0-1.663.426-2.939 1.276-3.828.89-.89 2.146-1.334 3.77-1.334s2.862.445 3.712 1.334c.851.89 1.276 2.165 1.276 3.828v2.378h-.58c.387-2.32 1.373-4.157 2.958-5.51 1.624-1.353 3.635-2.069 6.032-2.146 1.122-.039 1.953.251 2.494.87.58.58.89 1.682.928 3.306 0 1.392-.29 2.494-.87 3.306-.58.812-1.682 1.295-3.306 1.45l-1.334.116c-2.049.193-3.538.773-4.466 1.74-.928.928-1.392 2.32-1.392 4.176v9.512c0 1.701-.444 2.997-1.334 3.886-.889.89-2.184 1.334-3.886 1.334Zm23.383-.174c-1.74 0-3.132-.522-4.176-1.566-1.005-1.044-1.508-2.417-1.508-4.118 0-1.663.503-2.997 1.508-4.002 1.044-1.044 2.436-1.566 4.176-1.566 1.818 0 3.21.522 4.176 1.566 1.006 1.005 1.508 2.34 1.508 4.002 0 1.701-.502 3.074-1.508 4.118-.966 1.044-2.358 1.566-4.176 1.566Z"/><mask id="a" width="74" height="74" x="0" y="17" maskUnits="userSpaceOnUse" style="mask-type:alpha"><circle cx="37" cy="54" r="37" fill="#EAB945"/></mask><g mask="url(#a)"><path fill="#fff" d="M26.048 71.522c-1.701 0-3.016-.464-3.944-1.392-.928-.967-1.392-2.3-1.392-4.002V35.504c0-1.74.464-3.074 1.392-4.002.967-.928 2.3-1.392 4.002-1.392h14.268c4.64 0 8.217 1.199 10.73 3.596 2.552 2.359 3.828 5.626 3.828 9.802 0 4.176-1.276 7.463-3.828 9.86-2.513 2.359-6.09 3.538-10.73 3.538h-8.99v9.222c0 1.701-.445 3.035-1.334 4.002-.89.928-2.223 1.392-4.002 1.392Zm5.336-22.794h7.134c2.01 0 3.557-.425 4.64-1.276 1.083-.89 1.624-2.204 1.624-3.944 0-1.779-.541-3.093-1.624-3.944-1.083-.85-2.63-1.276-4.64-1.276h-7.134v10.44Zm32.539 22.794c-1.701 0-3.016-.445-3.944-1.334-.89-.89-1.334-2.185-1.334-3.886V47.104c0-1.663.425-2.939 1.276-3.828.89-.89 2.146-1.334 3.77-1.334s2.861.445 3.712 1.334c.85.89 1.276 2.165 1.276 3.828v2.378h-.58c.387-2.32 1.373-4.157 2.958-5.51 1.624-1.353 3.635-2.069 6.032-2.146 1.121-.039 1.953.251 2.494.87.58.58.89 1.682.928 3.306 0 1.392-.29 2.494-.87 3.306-.58.812-1.682 1.295-3.306 1.45L75 50.874c-2.05.193-3.538.773-4.466 1.74-.928.928-1.392 2.32-1.392 4.176v9.512c0 1.701-.445 2.997-1.334 3.886-.89.89-2.185 1.334-3.886 1.334Zm33.803.116c-3.171 0-5.936-.6-8.294-1.798-2.36-1.199-4.196-2.92-5.51-5.162-1.315-2.243-1.972-4.891-1.972-7.946 0-2.32.367-4.389 1.102-6.206.734-1.856 1.798-3.422 3.19-4.698 1.392-1.315 3.054-2.3 4.988-2.958 1.933-.696 4.098-1.044 6.496-1.044 3.17 0 5.935.6 8.294 1.798 2.358 1.199 4.176 2.92 5.452 5.162 1.314 2.204 1.972 4.853 1.972 7.946 0 2.281-.368 4.35-1.102 6.206-.735 1.856-1.798 3.441-3.19 4.756-1.354 1.276-3.016 2.262-4.988 2.958-1.934.657-4.08.986-6.438.986Zm0-7.598c1.044 0 1.972-.251 2.784-.754.812-.541 1.43-1.334 1.856-2.378.464-1.083.696-2.475.696-4.176 0-2.59-.503-4.447-1.508-5.568-1.006-1.16-2.282-1.74-3.828-1.74-1.044 0-1.972.251-2.784.754-.812.503-1.45 1.295-1.914 2.378-.464 1.044-.696 2.436-.696 4.176 0 2.552.502 4.408 1.508 5.568 1.005 1.16 2.3 1.74 3.886 1.74Zm31.584 7.598c-2.436 0-4.601-.6-6.496-1.798-1.856-1.199-3.325-2.92-4.408-5.162-1.044-2.243-1.566-4.891-1.566-7.946 0-3.132.522-5.8 1.566-8.004 1.083-2.204 2.552-3.905 4.408-5.104 1.895-1.199 4.06-1.798 6.496-1.798 2.127 0 4.041.503 5.742 1.508 1.702 1.005 2.842 2.3 3.422 3.886h-.638V34.808c0-1.701.445-2.997 1.334-3.886.89-.89 2.166-1.334 3.828-1.334 1.624 0 2.881.445 3.77 1.334.928.89 1.392 2.185 1.392 3.886v31.494c0 1.701-.444 2.997-1.334 3.886-.85.89-2.107 1.334-3.77 1.334-1.624 0-2.88-.445-3.77-1.334-.889-.89-1.334-2.185-1.334-3.886v-3.306l.638 2.842c-.541 1.74-1.682 3.151-3.422 4.234-1.701 1.044-3.654 1.566-5.858 1.566Zm3.306-7.598c1.044 0 1.972-.251 2.784-.754.812-.541 1.431-1.334 1.856-2.378.464-1.083.696-2.475.696-4.176 0-2.59-.502-4.447-1.508-5.568-1.005-1.16-2.281-1.74-3.828-1.74-1.044 0-1.972.251-2.784.754-.812.503-1.45 1.295-1.914 2.378-.464 1.044-.696 2.436-.696 4.176 0 2.552.503 4.408 1.508 5.568 1.006 1.16 2.301 1.74 3.886 1.74Zm32.197 7.598c-2.475 0-4.505-.445-6.09-1.334-1.585-.928-2.784-2.3-3.596-4.118-.773-1.817-1.16-4.118-1.16-6.902v-12.18c0-1.701.445-2.977 1.334-3.828.889-.89 2.165-1.334 3.828-1.334 1.663 0 2.939.445 3.828 1.334.889.85 1.334 2.127 1.334 3.828v12.47c0 1.392.29 2.436.87 3.132.58.696 1.489 1.044 2.726 1.044 1.392 0 2.533-.503 3.422-1.508.889-1.005 1.334-2.34 1.334-4.002V47.104c0-1.701.445-2.977 1.334-3.828.889-.89 2.165-1.334 3.828-1.334 1.663 0 2.939.445 3.828 1.334.889.85 1.334 2.127 1.334 3.828v19.198c0 3.48-1.663 5.22-4.988 5.22-1.624 0-2.881-.445-3.77-1.334-.889-.89-1.334-2.185-1.334-3.886v-3.364l.928 2.842c-.851 1.895-2.049 3.345-3.596 4.35-1.508 1.005-3.306 1.508-5.394 1.508Zm38.72 0c-3.209 0-6.013-.6-8.41-1.798-2.359-1.199-4.195-2.92-5.51-5.162-1.315-2.281-1.972-4.95-1.972-8.004 0-2.32.367-4.389 1.102-6.206.735-1.856 1.798-3.422 3.19-4.698 1.431-1.276 3.113-2.243 5.046-2.9 1.972-.696 4.157-1.044 6.554-1.044 1.121 0 2.301.116 3.538.348 1.237.193 2.513.58 3.828 1.16.928.348 1.566.89 1.914 1.624.387.696.541 1.45.464 2.262a4.372 4.372 0 0 1-.696 2.204 2.899 2.899 0 0 1-1.682 1.334c-.696.232-1.489.135-2.378-.29a6.936 6.936 0 0 0-1.972-.638 8.34 8.34 0 0 0-1.914-.232c-1.044 0-1.972.155-2.784.464a5.097 5.097 0 0 0-1.972 1.392c-.541.58-.967 1.315-1.276 2.204-.271.89-.406 1.895-.406 3.016 0 2.243.561 4.002 1.682 5.278 1.121 1.276 2.707 1.914 4.756 1.914.619 0 1.257-.058 1.914-.174a10.023 10.023 0 0 0 1.972-.696c.889-.425 1.682-.503 2.378-.232.696.232 1.257.677 1.682 1.334.425.657.657 1.392.696 2.204.039.773-.135 1.527-.522 2.262-.387.696-1.044 1.218-1.972 1.566-1.276.58-2.533.967-3.77 1.16a18.31 18.31 0 0 1-3.48.348Zm28.726 0c-2.9 0-5.297-.445-7.192-1.334-1.856-.89-3.248-2.223-4.176-4.002-.928-1.817-1.392-4.08-1.392-6.786v-9.454h-1.972c-1.237 0-2.204-.329-2.9-.986-.657-.657-.986-1.605-.986-2.842s.329-2.165.986-2.784c.696-.657 1.663-.986 2.9-.986h1.972v-3.596c0-1.701.445-2.997 1.334-3.886.89-.89 2.166-1.334 3.828-1.334 1.663 0 2.939.445 3.828 1.334.89.89 1.334 2.185 1.334 3.886v3.596h4.756c1.276 0 2.243.329 2.9.986.696.619 1.044 1.547 1.044 2.784 0 1.237-.348 2.185-1.044 2.842-.657.657-1.624.986-2.9.986h-4.756v9.106c0 1.43.329 2.494.986 3.19.696.657 1.779.986 3.248.986.542 0 1.064-.058 1.566-.174a6.227 6.227 0 0 1 1.392-.174c.619-.039 1.122.155 1.508.58.387.387.58 1.295.58 2.726 0 1.16-.174 2.146-.522 2.958-.348.773-.966 1.334-1.856 1.682-.541.193-1.276.348-2.204.464-.928.155-1.682.232-2.262.232ZM264.85 71c-1.817 0-3.209-.464-4.176-1.392-.928-.967-1.392-2.34-1.392-4.118V35.62c0-1.779.464-3.132 1.392-4.06.967-.967 2.359-1.45 4.176-1.45h11.368c7.115 0 12.606 1.779 16.472 5.336 3.906 3.557 5.858 8.584 5.858 15.08 0 3.248-.502 6.148-1.508 8.7-1.005 2.513-2.455 4.66-4.35 6.438-1.894 1.74-4.234 3.074-7.018 4.002-2.745.89-5.896 1.334-9.454 1.334H264.85Zm5.104-8.642h5.568c2.05 0 3.809-.251 5.278-.754 1.508-.503 2.746-1.237 3.712-2.204 1.006-.967 1.74-2.185 2.204-3.654.503-1.47.754-3.21.754-5.22 0-4.021-.986-6.98-2.958-8.874-1.972-1.933-4.968-2.9-8.99-2.9h-5.568v23.606Zm49.772 9.28c-3.48 0-6.496-.6-9.048-1.798-2.513-1.237-4.447-2.977-5.8-5.22-1.353-2.243-2.03-4.891-2.03-7.946 0-2.939.638-5.51 1.914-7.714 1.315-2.243 3.093-3.983 5.336-5.22 2.281-1.276 4.872-1.914 7.772-1.914 2.127 0 4.06.348 5.8 1.044 1.74.657 3.229 1.643 4.466 2.958 1.237 1.276 2.165 2.823 2.784 4.64.657 1.817.986 3.847.986 6.09 0 .773-.213 1.353-.638 1.74-.425.348-1.102.522-2.03.522H311.49v-4.872h12.876l-.928.754c0-1.43-.193-2.59-.58-3.48-.387-.89-.967-1.566-1.74-2.03-.735-.464-1.663-.696-2.784-.696-1.199 0-2.243.29-3.132.87-.851.541-1.508 1.353-1.972 2.436-.464 1.083-.696 2.436-.696 4.06v.522c0 2.745.599 4.717 1.798 5.916 1.237 1.16 3.132 1.74 5.684 1.74.851 0 1.817-.097 2.9-.29a20.362 20.362 0 0 0 3.19-.928c1.005-.387 1.875-.445 2.61-.174.735.232 1.295.657 1.682 1.276.425.58.657 1.257.696 2.03.039.735-.135 1.47-.522 2.204-.387.696-1.025 1.237-1.914 1.624a19.715 19.715 0 0 1-4.35 1.392c-1.508.31-3.035.464-4.582.464Zm27.996 0c-1.701 0-3.441-.135-5.22-.406-1.74-.232-3.325-.677-4.756-1.334-.967-.387-1.663-.909-2.088-1.566a4.05 4.05 0 0 1-.58-2.088 3.851 3.851 0 0 1 .638-1.972c.425-.619.967-1.044 1.624-1.276.696-.27 1.469-.251 2.32.058 1.624.58 3.074 1.005 4.35 1.276 1.315.232 2.571.348 3.77.348 1.431 0 2.455-.193 3.074-.58.619-.425.928-.967.928-1.624 0-.58-.213-1.025-.638-1.334-.387-.31-.947-.522-1.682-.638l-6.438-1.044c-2.397-.425-4.253-1.295-5.568-2.61-1.315-1.353-1.972-3.113-1.972-5.278 0-2.01.561-3.731 1.682-5.162 1.16-1.47 2.726-2.59 4.698-3.364 2.011-.812 4.311-1.218 6.902-1.218 1.74 0 3.325.135 4.756.406 1.431.232 2.823.677 4.176 1.334.851.348 1.45.85 1.798 1.508.348.657.483 1.353.406 2.088a4.278 4.278 0 0 1-.754 1.972c-.387.58-.928.986-1.624 1.218-.696.193-1.508.135-2.436-.174-1.276-.503-2.417-.87-3.422-1.102a11.707 11.707 0 0 0-2.726-.348c-1.585 0-2.707.213-3.364.638-.657.425-.986.967-.986 1.624 0 .503.174.928.522 1.276.348.31.889.522 1.624.638l6.438 1.102c2.475.387 4.369 1.237 5.684 2.552 1.353 1.276 2.03 3.016 2.03 5.22 0 3.132-1.199 5.568-3.596 7.308-2.397 1.701-5.587 2.552-9.57 2.552Zm22.509-.116c-1.624 0-2.88-.483-3.77-1.45-.889-.967-1.334-2.359-1.334-4.176V47.568c0-1.817.445-3.21 1.334-4.176.89-.967 2.146-1.45 3.77-1.45 1.663 0 2.939.483 3.828 1.45.928.967 1.392 2.359 1.392 4.176v18.328c0 1.817-.444 3.21-1.334 4.176-.889.967-2.184 1.45-3.886 1.45Zm0-33.698c-1.817 0-3.228-.425-4.234-1.276-.966-.85-1.45-2.088-1.45-3.712 0-1.585.484-2.803 1.45-3.654 1.006-.85 2.417-1.276 4.234-1.276 1.895 0 3.326.425 4.292 1.276.967.85 1.45 2.069 1.45 3.654 0 1.624-.483 2.861-1.45 3.712-.966.85-2.397 1.276-4.292 1.276Zm25.361 44.254c-2.127 0-4.118-.155-5.974-.464-1.856-.27-3.461-.677-4.814-1.218-1.122-.387-1.914-.947-2.378-1.682-.464-.735-.677-1.508-.638-2.32a4.71 4.71 0 0 1 .638-2.204 3.814 3.814 0 0 1 1.682-1.45c.696-.27 1.469-.251 2.32.058 1.701.696 3.248 1.14 4.64 1.334 1.392.232 2.571.348 3.538.348 2.358 0 4.118-.503 5.278-1.508 1.198-.967 1.798-2.494 1.798-4.582v-3.654h.464c-.58 1.624-1.76 2.958-3.538 4.002-1.779 1.005-3.712 1.508-5.8 1.508-2.552 0-4.776-.58-6.67-1.74-1.895-1.199-3.384-2.861-4.466-4.988-1.044-2.127-1.566-4.62-1.566-7.482 0-2.165.309-4.118.928-5.858.618-1.74 1.469-3.229 2.552-4.466a11.296 11.296 0 0 1 4.002-2.842c1.585-.696 3.325-1.044 5.22-1.044 2.165 0 4.098.503 5.8 1.508 1.74 1.005 2.9 2.32 3.48 3.944l-.58 2.378v-2.552c0-1.663.444-2.939 1.334-3.828.928-.89 2.204-1.334 3.828-1.334 1.624 0 2.861.445 3.712 1.334.889.89 1.334 2.165 1.334 3.828v20.068c0 4.95-1.392 8.661-4.176 11.136-2.784 2.513-6.767 3.77-11.948 3.77Zm.406-19.43c1.16 0 2.146-.251 2.958-.754.812-.541 1.45-1.295 1.914-2.262.464-1.005.696-2.204.696-3.596 0-2.088-.503-3.712-1.508-4.872-1.006-1.16-2.359-1.74-4.06-1.74-1.083 0-2.05.27-2.9.812-.851.503-1.508 1.257-1.972 2.262-.426.967-.638 2.146-.638 3.538 0 2.088.502 3.712 1.508 4.872 1.005 1.16 2.339 1.74 4.002 1.74Zm26.852 8.874c-1.624 0-2.88-.445-3.77-1.334-.889-.89-1.334-2.185-1.334-3.886V47.104c0-1.663.426-2.939 1.276-3.828.89-.89 2.146-1.334 3.77-1.334s2.862.445 3.712 1.334c.851.89 1.276 2.165 1.276 3.828v2.726l-.638-2.378c.928-1.817 2.243-3.21 3.944-4.176 1.74-.967 3.712-1.45 5.916-1.45 2.282 0 4.157.445 5.626 1.334 1.47.85 2.572 2.204 3.306 4.06.735 1.817 1.102 4.118 1.102 6.902v12.18c0 1.701-.444 2.997-1.334 3.886-.889.89-2.165 1.334-3.828 1.334-1.662 0-2.938-.445-3.828-1.334-.889-.89-1.334-2.185-1.334-3.886V54.528c0-1.74-.309-2.977-.928-3.712-.58-.735-1.45-1.102-2.61-1.102-1.546 0-2.784.503-3.712 1.508-.928.967-1.392 2.281-1.392 3.944v11.136c0 3.48-1.74 5.22-5.22 5.22Zm45.614.116c-3.48 0-6.496-.6-9.048-1.798-2.513-1.237-4.446-2.977-5.8-5.22-1.353-2.243-2.03-4.891-2.03-7.946 0-2.939.638-5.51 1.914-7.714 1.315-2.243 3.094-3.983 5.336-5.22 2.282-1.276 4.872-1.914 7.772-1.914 2.127 0 4.06.348 5.8 1.044 1.74.657 3.229 1.643 4.466 2.958 1.238 1.276 2.166 2.823 2.784 4.64.658 1.817.986 3.847.986 6.09 0 .773-.212 1.353-.638 1.74-.425.348-1.102.522-2.03.522h-17.748v-4.872h12.876l-.928.754c0-1.43-.193-2.59-.58-3.48-.386-.89-.966-1.566-1.74-2.03-.734-.464-1.662-.696-2.784-.696-1.198 0-2.242.29-3.132.87-.85.541-1.508 1.353-1.972 2.436-.464 1.083-.696 2.436-.696 4.06v.522c0 2.745.6 4.717 1.798 5.916 1.238 1.16 3.132 1.74 5.684 1.74.851 0 1.818-.097 2.9-.29a20.33 20.33 0 0 0 3.19-.928c1.006-.387 1.876-.445 2.61-.174.735.232 1.296.657 1.682 1.276.426.58.658 1.257.696 2.03.039.735-.135 1.47-.522 2.204-.386.696-1.024 1.237-1.914 1.624a19.715 19.715 0 0 1-4.35 1.392c-1.508.31-3.035.464-4.582.464Zm21.906-.116c-1.701 0-3.016-.445-3.944-1.334-.889-.89-1.334-2.185-1.334-3.886V47.104c0-1.663.426-2.939 1.276-3.828.89-.89 2.146-1.334 3.77-1.334s2.862.445 3.712 1.334c.851.89 1.276 2.165 1.276 3.828v2.378h-.58c.387-2.32 1.373-4.157 2.958-5.51 1.624-1.353 3.635-2.069 6.032-2.146 1.122-.039 1.953.251 2.494.87.58.58.89 1.682.928 3.306 0 1.392-.29 2.494-.87 3.306-.58.812-1.682 1.295-3.306 1.45l-1.334.116c-2.049.193-3.538.773-4.466 1.74-.928.928-1.392 2.32-1.392 4.176v9.512c0 1.701-.444 2.997-1.334 3.886-.889.89-2.184 1.334-3.886 1.334Zm23.383-.174c-1.74 0-3.132-.522-4.176-1.566-1.005-1.044-1.508-2.417-1.508-4.118 0-1.663.503-2.997 1.508-4.002 1.044-1.044 2.436-1.566 4.176-1.566 1.818 0 3.21.522 4.176 1.566 1.006 1.005 1.508 2.34 1.508 4.002 0 1.701-.502 3.074-1.508 4.118-.966 1.044-2.358 1.566-4.176 1.566Z"/></g></svg>