<svg width="600" height="93" viewBox="0 0 600 93" fill="none" xmlns="http://www.w3.org/2000/svg">
<circle cx="37" cy="54" r="37" fill="#EAB945"/>
<path d="M26.048 71.522C24.3467 71.522 23.032 71.058 22.104 70.13C21.176 69.1633 20.712 67.8293 20.712 66.128V35.504C20.712 33.764 21.176 32.43 22.104 31.502C23.0707 30.574 24.4047 30.11 26.106 30.11H40.374C45.014 30.11 48.5907 31.3087 51.104 33.706C53.656 36.0647 54.932 39.332 54.932 43.508C54.932 47.684 53.656 50.9707 51.104 53.368C48.5907 55.7267 45.014 56.906 40.374 56.906H31.384V66.128C31.384 67.8293 30.9393 69.1633 30.05 70.13C29.1607 71.058 27.8267 71.522 26.048 71.522ZM31.384 48.728H38.518C40.5287 48.728 42.0753 48.3027 43.158 47.452C44.2407 46.5627 44.782 45.248 44.782 43.508C44.782 41.7293 44.2407 40.4147 43.158 39.564C42.0753 38.7133 40.5287 38.288 38.518 38.288H31.384V48.728ZM63.9229 71.522C62.2216 71.522 60.9069 71.0773 59.9789 70.188C59.0896 69.2987 58.6449 68.0033 58.6449 66.302V47.104C58.6449 45.4413 59.0702 44.1653 59.9209 43.276C60.8102 42.3867 62.0669 41.942 63.6909 41.942C65.3149 41.942 66.5522 42.3867 67.4029 43.276C68.2536 44.1653 68.6789 45.4413 68.6789 47.104V49.482H68.0989C68.4856 47.162 69.4716 45.3253 71.0569 43.972C72.6809 42.6187 74.6916 41.9033 77.0889 41.826C78.2102 41.7873 79.0416 42.0773 79.5829 42.696C80.1629 43.276 80.4722 44.378 80.5109 46.002C80.5109 47.394 80.2209 48.496 79.6409 49.308C79.0609 50.12 77.9589 50.6033 76.3349 50.758L75.0009 50.874C72.9516 51.0673 71.4629 51.6473 70.5349 52.614C69.6069 53.542 69.1429 54.934 69.1429 56.79V66.302C69.1429 68.0033 68.6982 69.2987 67.8089 70.188C66.9196 71.0773 65.6242 71.522 63.9229 71.522ZM97.7256 71.638C94.5549 71.638 91.7902 71.0387 89.4316 69.84C87.0729 68.6413 85.2362 66.9207 83.9216 64.678C82.6069 62.4353 81.9496 59.7867 81.9496 56.732C81.9496 54.412 82.3169 52.3433 83.0516 50.526C83.7862 48.67 84.8496 47.104 86.2416 45.828C87.6336 44.5133 89.2962 43.5273 91.2296 42.87C93.1629 42.174 95.3282 41.826 97.7256 41.826C100.896 41.826 103.661 42.4253 106.02 43.624C108.378 44.8227 110.196 46.5433 111.472 48.786C112.786 50.99 113.444 53.6387 113.444 56.732C113.444 59.0133 113.076 61.082 112.342 62.938C111.607 64.794 110.544 66.3793 109.152 67.694C107.798 68.97 106.136 69.956 104.164 70.652C102.23 71.3093 100.084 71.638 97.7256 71.638ZM97.7256 64.04C98.7696 64.04 99.6976 63.7887 100.51 63.286C101.322 62.7447 101.94 61.952 102.366 60.908C102.83 59.8253 103.062 58.4333 103.062 56.732C103.062 54.1413 102.559 52.2853 101.554 51.164C100.548 50.004 99.2722 49.424 97.7256 49.424C96.6816 49.424 95.7536 49.6753 94.9416 50.178C94.1296 50.6807 93.4916 51.4733 93.0276 52.556C92.5636 53.6 92.3316 54.992 92.3316 56.732C92.3316 59.284 92.8342 61.14 93.8396 62.3C94.8449 63.46 96.1402 64.04 97.7256 64.04ZM129.31 71.638C126.874 71.638 124.709 71.0387 122.814 69.84C120.958 68.6413 119.489 66.9207 118.406 64.678C117.362 62.4353 116.84 59.7867 116.84 56.732C116.84 53.6 117.362 50.932 118.406 48.728C119.489 46.524 120.958 44.8227 122.814 43.624C124.709 42.4253 126.874 41.826 129.31 41.826C131.437 41.826 133.351 42.3287 135.052 43.334C136.754 44.3393 137.894 45.6347 138.474 47.22H137.836V34.808C137.836 33.1067 138.281 31.8113 139.17 30.922C140.06 30.0327 141.336 29.588 142.998 29.588C144.622 29.588 145.879 30.0327 146.768 30.922C147.696 31.8113 148.16 33.1067 148.16 34.808V66.302C148.16 68.0033 147.716 69.2987 146.826 70.188C145.976 71.0773 144.719 71.522 143.056 71.522C141.432 71.522 140.176 71.0773 139.286 70.188C138.397 69.2987 137.952 68.0033 137.952 66.302V62.996L138.59 65.838C138.049 67.578 136.908 68.9893 135.168 70.072C133.467 71.116 131.514 71.638 129.31 71.638ZM132.616 64.04C133.66 64.04 134.588 63.7887 135.4 63.286C136.212 62.7447 136.831 61.952 137.256 60.908C137.72 59.8253 137.952 58.4333 137.952 56.732C137.952 54.1413 137.45 52.2853 136.444 51.164C135.439 50.004 134.163 49.424 132.616 49.424C131.572 49.424 130.644 49.6753 129.832 50.178C129.02 50.6807 128.382 51.4733 127.918 52.556C127.454 53.6 127.222 54.992 127.222 56.732C127.222 59.284 127.725 61.14 128.73 62.3C129.736 63.46 131.031 64.04 132.616 64.04ZM164.813 71.638C162.338 71.638 160.308 71.1933 158.723 70.304C157.138 69.376 155.939 68.0033 155.127 66.186C154.354 64.3687 153.967 62.068 153.967 59.284V47.104C153.967 45.4027 154.412 44.1267 155.301 43.276C156.19 42.3867 157.466 41.942 159.129 41.942C160.792 41.942 162.068 42.3867 162.957 43.276C163.846 44.1267 164.291 45.4027 164.291 47.104V59.574C164.291 60.966 164.581 62.01 165.161 62.706C165.741 63.402 166.65 63.75 167.887 63.75C169.279 63.75 170.42 63.2473 171.309 62.242C172.198 61.2367 172.643 59.9027 172.643 58.24V47.104C172.643 45.4027 173.088 44.1267 173.977 43.276C174.866 42.3867 176.142 41.942 177.805 41.942C179.468 41.942 180.744 42.3867 181.633 43.276C182.522 44.1267 182.967 45.4027 182.967 47.104V66.302C182.967 69.782 181.304 71.522 177.979 71.522C176.355 71.522 175.098 71.0773 174.209 70.188C173.32 69.2987 172.875 68.0033 172.875 66.302V62.938L173.803 65.78C172.952 67.6747 171.754 69.1247 170.207 70.13C168.699 71.1353 166.901 71.638 164.813 71.638ZM203.533 71.638C200.324 71.638 197.52 71.0387 195.123 69.84C192.764 68.6413 190.928 66.9207 189.613 64.678C188.298 62.3967 187.641 59.7287 187.641 56.674C187.641 54.354 188.008 52.2853 188.743 50.468C189.478 48.612 190.541 47.046 191.933 45.77C193.364 44.494 195.046 43.5273 196.979 42.87C198.951 42.174 201.136 41.826 203.533 41.826C204.654 41.826 205.834 41.942 207.071 42.174C208.308 42.3673 209.584 42.754 210.899 43.334C211.827 43.682 212.465 44.2233 212.813 44.958C213.2 45.654 213.354 46.408 213.277 47.22C213.238 48.032 213.006 48.7667 212.581 49.424C212.194 50.0813 211.634 50.526 210.899 50.758C210.203 50.99 209.41 50.8933 208.521 50.468C207.902 50.1587 207.245 49.946 206.549 49.83C205.892 49.6753 205.254 49.598 204.635 49.598C203.591 49.598 202.663 49.7527 201.851 50.062C201.078 50.3713 200.42 50.8353 199.879 51.454C199.338 52.034 198.912 52.7687 198.603 53.658C198.332 54.5473 198.197 55.5527 198.197 56.674C198.197 58.9167 198.758 60.676 199.879 61.952C201 63.228 202.586 63.866 204.635 63.866C205.254 63.866 205.892 63.808 206.549 63.692C207.206 63.5373 207.864 63.3053 208.521 62.996C209.41 62.5707 210.203 62.4933 210.899 62.764C211.595 62.996 212.156 63.4407 212.581 64.098C213.006 64.7553 213.238 65.49 213.277 66.302C213.316 67.0753 213.142 67.8293 212.755 68.564C212.368 69.26 211.711 69.782 210.783 70.13C209.507 70.71 208.25 71.0967 207.013 71.29C205.814 71.522 204.654 71.638 203.533 71.638ZM232.259 71.638C229.359 71.638 226.962 71.1933 225.067 70.304C223.211 69.4147 221.819 68.0807 220.891 66.302C219.963 64.4847 219.499 62.2227 219.499 59.516V50.062H217.527C216.29 50.062 215.323 49.7333 214.627 49.076C213.97 48.4187 213.641 47.4713 213.641 46.234C213.641 44.9967 213.97 44.0687 214.627 43.45C215.323 42.7927 216.29 42.464 217.527 42.464H219.499V38.868C219.499 37.1667 219.944 35.8713 220.833 34.982C221.723 34.0927 222.999 33.648 224.661 33.648C226.324 33.648 227.6 34.0927 228.489 34.982C229.379 35.8713 229.823 37.1667 229.823 38.868V42.464H234.579C235.855 42.464 236.822 42.7927 237.479 43.45C238.175 44.0687 238.523 44.9967 238.523 46.234C238.523 47.4713 238.175 48.4187 237.479 49.076C236.822 49.7333 235.855 50.062 234.579 50.062H229.823V59.168C229.823 60.5987 230.152 61.662 230.809 62.358C231.505 63.0153 232.588 63.344 234.057 63.344C234.599 63.344 235.121 63.286 235.623 63.17C236.126 63.054 236.59 62.996 237.015 62.996C237.634 62.9573 238.137 63.1507 238.523 63.576C238.91 63.9627 239.103 64.8713 239.103 66.302C239.103 67.462 238.929 68.448 238.581 69.26C238.233 70.0333 237.615 70.594 236.725 70.942C236.184 71.1353 235.449 71.29 234.521 71.406C233.593 71.5607 232.839 71.638 232.259 71.638ZM264.85 71C263.033 71 261.641 70.536 260.674 69.608C259.746 68.6413 259.282 67.2687 259.282 65.49V35.62C259.282 33.8413 259.746 32.488 260.674 31.56C261.641 30.5933 263.033 30.11 264.85 30.11H276.218C283.333 30.11 288.824 31.8887 292.69 35.446C296.596 39.0033 298.548 44.03 298.548 50.526C298.548 53.774 298.046 56.674 297.04 59.226C296.035 61.7393 294.585 63.8853 292.69 65.664C290.796 67.404 288.456 68.738 285.672 69.666C282.927 70.5553 279.776 71 276.218 71H264.85ZM269.954 62.358H275.522C277.572 62.358 279.331 62.1067 280.8 61.604C282.308 61.1013 283.546 60.3667 284.512 59.4C285.518 58.4333 286.252 57.2153 286.716 55.746C287.219 54.2767 287.47 52.5367 287.47 50.526C287.47 46.5047 286.484 43.5467 284.512 41.652C282.54 39.7187 279.544 38.752 275.522 38.752H269.954V62.358ZM319.726 71.638C316.246 71.638 313.23 71.0387 310.678 69.84C308.165 68.6027 306.231 66.8627 304.878 64.62C303.525 62.3773 302.848 59.7287 302.848 56.674C302.848 53.7353 303.486 51.164 304.762 48.96C306.077 46.7173 307.855 44.9773 310.098 43.74C312.379 42.464 314.97 41.826 317.87 41.826C319.997 41.826 321.93 42.174 323.67 42.87C325.41 43.5273 326.899 44.5133 328.136 45.828C329.373 47.104 330.301 48.6507 330.92 50.468C331.577 52.2853 331.906 54.3153 331.906 56.558C331.906 57.3313 331.693 57.9113 331.268 58.298C330.843 58.646 330.166 58.82 329.238 58.82H311.49V53.948H324.366L323.438 54.702C323.438 53.2713 323.245 52.1113 322.858 51.222C322.471 50.3327 321.891 49.656 321.118 49.192C320.383 48.728 319.455 48.496 318.334 48.496C317.135 48.496 316.091 48.786 315.202 49.366C314.351 49.9073 313.694 50.7193 313.23 51.802C312.766 52.8847 312.534 54.238 312.534 55.862V56.384C312.534 59.1293 313.133 61.1013 314.332 62.3C315.569 63.46 317.464 64.04 320.016 64.04C320.867 64.04 321.833 63.9433 322.916 63.75C324.037 63.518 325.101 63.2087 326.106 62.822C327.111 62.4353 327.981 62.3773 328.716 62.648C329.451 62.88 330.011 63.3053 330.398 63.924C330.823 64.504 331.055 65.1807 331.094 65.954C331.133 66.6887 330.959 67.4233 330.572 68.158C330.185 68.854 329.547 69.3953 328.658 69.782C327.305 70.4007 325.855 70.8647 324.308 71.174C322.8 71.4833 321.273 71.638 319.726 71.638ZM347.722 71.638C346.021 71.638 344.281 71.5027 342.502 71.232C340.762 71 339.177 70.5553 337.746 69.898C336.779 69.5113 336.083 68.9893 335.658 68.332C335.271 67.6747 335.078 66.9787 335.078 66.244C335.117 65.5093 335.329 64.852 335.716 64.272C336.141 63.6533 336.683 63.228 337.34 62.996C338.036 62.7253 338.809 62.7447 339.66 63.054C341.284 63.634 342.734 64.0593 344.01 64.33C345.325 64.562 346.581 64.678 347.78 64.678C349.211 64.678 350.235 64.4847 350.854 64.098C351.473 63.6727 351.782 63.1313 351.782 62.474C351.782 61.894 351.569 61.4493 351.144 61.14C350.757 60.8307 350.197 60.618 349.462 60.502L343.024 59.458C340.627 59.0327 338.771 58.1627 337.456 56.848C336.141 55.4947 335.484 53.7353 335.484 51.57C335.484 49.5593 336.045 47.8387 337.166 46.408C338.326 44.9387 339.892 43.8173 341.864 43.044C343.875 42.232 346.175 41.826 348.766 41.826C350.506 41.826 352.091 41.9613 353.522 42.232C354.953 42.464 356.345 42.9087 357.698 43.566C358.549 43.914 359.148 44.4167 359.496 45.074C359.844 45.7313 359.979 46.4273 359.902 47.162C359.825 47.858 359.573 48.5153 359.148 49.134C358.761 49.714 358.22 50.12 357.524 50.352C356.828 50.5453 356.016 50.4873 355.088 50.178C353.812 49.6753 352.671 49.308 351.666 49.076C350.699 48.844 349.791 48.728 348.94 48.728C347.355 48.728 346.233 48.9407 345.576 49.366C344.919 49.7913 344.59 50.3327 344.59 50.99C344.59 51.4927 344.764 51.918 345.112 52.266C345.46 52.5753 346.001 52.788 346.736 52.904L353.174 54.006C355.649 54.3927 357.543 55.2433 358.858 56.558C360.211 57.834 360.888 59.574 360.888 61.778C360.888 64.91 359.689 67.346 357.292 69.086C354.895 70.7873 351.705 71.638 347.722 71.638ZM370.231 71.522C368.607 71.522 367.351 71.0387 366.461 70.072C365.572 69.1053 365.127 67.7133 365.127 65.896V47.568C365.127 45.7507 365.572 44.3587 366.461 43.392C367.351 42.4253 368.607 41.942 370.231 41.942C371.894 41.942 373.17 42.4253 374.059 43.392C374.987 44.3587 375.451 45.7507 375.451 47.568V65.896C375.451 67.7133 375.007 69.1053 374.117 70.072C373.228 71.0387 371.933 71.522 370.231 71.522ZM370.231 37.824C368.414 37.824 367.003 37.3987 365.997 36.548C365.031 35.6973 364.547 34.46 364.547 32.836C364.547 31.2507 365.031 30.0327 365.997 29.182C367.003 28.3313 368.414 27.906 370.231 27.906C372.126 27.906 373.557 28.3313 374.523 29.182C375.49 30.0327 375.973 31.2507 375.973 32.836C375.973 34.46 375.49 35.6973 374.523 36.548C373.557 37.3987 372.126 37.824 370.231 37.824ZM395.592 82.078C393.465 82.078 391.474 81.9233 389.618 81.614C387.762 81.3433 386.157 80.9373 384.804 80.396C383.682 80.0093 382.89 79.4487 382.426 78.714C381.962 77.9793 381.749 77.206 381.788 76.394C381.826 75.582 382.039 74.8473 382.426 74.19C382.851 73.5327 383.412 73.0493 384.108 72.74C384.804 72.4693 385.577 72.4887 386.428 72.798C388.129 73.494 389.676 73.9387 391.068 74.132C392.46 74.364 393.639 74.48 394.606 74.48C396.964 74.48 398.724 73.9773 399.884 72.972C401.082 72.0053 401.682 70.478 401.682 68.39V64.736H402.146C401.566 66.36 400.386 67.694 398.608 68.738C396.829 69.7433 394.896 70.246 392.808 70.246C390.256 70.246 388.032 69.666 386.138 68.506C384.243 67.3073 382.754 65.6447 381.672 63.518C380.628 61.3913 380.106 58.8973 380.106 56.036C380.106 53.8707 380.415 51.918 381.034 50.178C381.652 48.438 382.503 46.9493 383.586 45.712C384.707 44.4747 386.041 43.5273 387.588 42.87C389.173 42.174 390.913 41.826 392.808 41.826C394.973 41.826 396.906 42.3287 398.608 43.334C400.348 44.3393 401.508 45.654 402.088 47.278L401.508 49.656V47.104C401.508 45.4413 401.952 44.1653 402.842 43.276C403.77 42.3867 405.046 41.942 406.67 41.942C408.294 41.942 409.531 42.3867 410.382 43.276C411.271 44.1653 411.716 45.4413 411.716 47.104V67.172C411.716 72.1213 410.324 75.8333 407.54 78.308C404.756 80.8213 400.773 82.078 395.592 82.078ZM395.998 62.648C397.158 62.648 398.144 62.3967 398.956 61.894C399.768 61.3527 400.406 60.5987 400.87 59.632C401.334 58.6267 401.566 57.428 401.566 56.036C401.566 53.948 401.063 52.324 400.058 51.164C399.052 50.004 397.699 49.424 395.998 49.424C394.915 49.424 393.948 49.6947 393.098 50.236C392.247 50.7387 391.59 51.4927 391.126 52.498C390.7 53.4647 390.488 54.644 390.488 56.036C390.488 58.124 390.99 59.748 391.996 60.908C393.001 62.068 394.335 62.648 395.998 62.648ZM422.85 71.522C421.226 71.522 419.97 71.0773 419.08 70.188C418.191 69.2987 417.746 68.0033 417.746 66.302V47.104C417.746 45.4413 418.172 44.1653 419.022 43.276C419.912 42.3867 421.168 41.942 422.792 41.942C424.416 41.942 425.654 42.3867 426.504 43.276C427.355 44.1653 427.78 45.4413 427.78 47.104V49.83L427.142 47.452C428.07 45.6347 429.385 44.2427 431.086 43.276C432.826 42.3093 434.798 41.826 437.002 41.826C439.284 41.826 441.159 42.2707 442.628 43.16C444.098 44.0107 445.2 45.364 445.934 47.22C446.669 49.0373 447.036 51.338 447.036 54.122V66.302C447.036 68.0033 446.592 69.2987 445.702 70.188C444.813 71.0773 443.537 71.522 441.874 71.522C440.212 71.522 438.936 71.0773 438.046 70.188C437.157 69.2987 436.712 68.0033 436.712 66.302V54.528C436.712 52.788 436.403 51.5507 435.784 50.816C435.204 50.0813 434.334 49.714 433.174 49.714C431.628 49.714 430.39 50.2167 429.462 51.222C428.534 52.1887 428.07 53.5033 428.07 55.166V66.302C428.07 69.782 426.33 71.522 422.85 71.522ZM468.464 71.638C464.984 71.638 461.968 71.0387 459.416 69.84C456.903 68.6027 454.97 66.8627 453.616 64.62C452.263 62.3773 451.586 59.7287 451.586 56.674C451.586 53.7353 452.224 51.164 453.5 48.96C454.815 46.7173 456.594 44.9773 458.836 43.74C461.118 42.464 463.708 41.826 466.608 41.826C468.735 41.826 470.668 42.174 472.408 42.87C474.148 43.5273 475.637 44.5133 476.874 45.828C478.112 47.104 479.04 48.6507 479.658 50.468C480.316 52.2853 480.644 54.3153 480.644 56.558C480.644 57.3313 480.432 57.9113 480.006 58.298C479.581 58.646 478.904 58.82 477.976 58.82H460.228V53.948H473.104L472.176 54.702C472.176 53.2713 471.983 52.1113 471.596 51.222C471.21 50.3327 470.63 49.656 469.856 49.192C469.122 48.728 468.194 48.496 467.072 48.496C465.874 48.496 464.83 48.786 463.94 49.366C463.09 49.9073 462.432 50.7193 461.968 51.802C461.504 52.8847 461.272 54.238 461.272 55.862V56.384C461.272 59.1293 461.872 61.1013 463.07 62.3C464.308 63.46 466.202 64.04 468.754 64.04C469.605 64.04 470.572 63.9433 471.654 63.75C472.776 63.518 473.839 63.2087 474.844 62.822C475.85 62.4353 476.72 62.3773 477.454 62.648C478.189 62.88 478.75 63.3053 479.136 63.924C479.562 64.504 479.794 65.1807 479.832 65.954C479.871 66.6887 479.697 67.4233 479.31 68.158C478.924 68.854 478.286 69.3953 477.396 69.782C476.043 70.4007 474.593 70.8647 473.046 71.174C471.538 71.4833 470.011 71.638 468.464 71.638ZM490.37 71.522C488.669 71.522 487.354 71.0773 486.426 70.188C485.537 69.2987 485.092 68.0033 485.092 66.302V47.104C485.092 45.4413 485.518 44.1653 486.368 43.276C487.258 42.3867 488.514 41.942 490.138 41.942C491.762 41.942 493 42.3867 493.85 43.276C494.701 44.1653 495.126 45.4413 495.126 47.104V49.482H494.546C494.933 47.162 495.919 45.3253 497.504 43.972C499.128 42.6187 501.139 41.9033 503.536 41.826C504.658 41.7873 505.489 42.0773 506.03 42.696C506.61 43.276 506.92 44.378 506.958 46.002C506.958 47.394 506.668 48.496 506.088 49.308C505.508 50.12 504.406 50.6033 502.782 50.758L501.448 50.874C499.399 51.0673 497.91 51.6473 496.982 52.614C496.054 53.542 495.59 54.934 495.59 56.79V66.302C495.59 68.0033 495.146 69.2987 494.256 70.188C493.367 71.0773 492.072 71.522 490.37 71.522ZM513.753 71.348C512.013 71.348 510.621 70.826 509.577 69.782C508.572 68.738 508.069 67.3653 508.069 65.664C508.069 64.0013 508.572 62.6673 509.577 61.662C510.621 60.618 512.013 60.096 513.753 60.096C515.571 60.096 516.963 60.618 517.929 61.662C518.935 62.6673 519.437 64.0013 519.437 65.664C519.437 67.3653 518.935 68.738 517.929 69.782C516.963 70.826 515.571 71.348 513.753 71.348Z" fill="#4C4E51"/>
<mask id="mask0_2265_2201" style="mask-type:alpha" maskUnits="userSpaceOnUse" x="0" y="17" width="74" height="74">
<circle cx="37" cy="54" r="37" fill="#EAB945"/>
</mask>
<g mask="url(#mask0_2265_2201)">
<path d="M26.048 71.522C24.3467 71.522 23.032 71.058 22.104 70.13C21.176 69.1633 20.712 67.8293 20.712 66.128V35.504C20.712 33.764 21.176 32.43 22.104 31.502C23.0707 30.574 24.4047 30.11 26.106 30.11H40.374C45.014 30.11 48.5907 31.3087 51.104 33.706C53.656 36.0647 54.932 39.332 54.932 43.508C54.932 47.684 53.656 50.9707 51.104 53.368C48.5907 55.7267 45.014 56.906 40.374 56.906H31.384V66.128C31.384 67.8293 30.9393 69.1633 30.05 70.13C29.1607 71.058 27.8267 71.522 26.048 71.522ZM31.384 48.728H38.518C40.5287 48.728 42.0753 48.3027 43.158 47.452C44.2407 46.5627 44.782 45.248 44.782 43.508C44.782 41.7293 44.2407 40.4147 43.158 39.564C42.0753 38.7133 40.5287 38.288 38.518 38.288H31.384V48.728ZM63.9229 71.522C62.2216 71.522 60.9069 71.0773 59.9789 70.188C59.0896 69.2987 58.6449 68.0033 58.6449 66.302V47.104C58.6449 45.4413 59.0702 44.1653 59.9209 43.276C60.8102 42.3867 62.0669 41.942 63.6909 41.942C65.3149 41.942 66.5522 42.3867 67.4029 43.276C68.2536 44.1653 68.6789 45.4413 68.6789 47.104V49.482H68.0989C68.4856 47.162 69.4716 45.3253 71.0569 43.972C72.6809 42.6187 74.6916 41.9033 77.0889 41.826C78.2102 41.7873 79.0416 42.0773 79.5829 42.696C80.1629 43.276 80.4722 44.378 80.5109 46.002C80.5109 47.394 80.2209 48.496 79.6409 49.308C79.0609 50.12 77.9589 50.6033 76.3349 50.758L75.0009 50.874C72.9516 51.0673 71.4629 51.6473 70.5349 52.614C69.6069 53.542 69.1429 54.934 69.1429 56.79V66.302C69.1429 68.0033 68.6982 69.2987 67.8089 70.188C66.9196 71.0773 65.6242 71.522 63.9229 71.522ZM97.7256 71.638C94.5549 71.638 91.7902 71.0387 89.4316 69.84C87.0729 68.6413 85.2362 66.9207 83.9216 64.678C82.6069 62.4353 81.9496 59.7867 81.9496 56.732C81.9496 54.412 82.3169 52.3433 83.0516 50.526C83.7862 48.67 84.8496 47.104 86.2416 45.828C87.6336 44.5133 89.2962 43.5273 91.2296 42.87C93.1629 42.174 95.3282 41.826 97.7256 41.826C100.896 41.826 103.661 42.4253 106.02 43.624C108.378 44.8227 110.196 46.5433 111.472 48.786C112.786 50.99 113.444 53.6387 113.444 56.732C113.444 59.0133 113.076 61.082 112.342 62.938C111.607 64.794 110.544 66.3793 109.152 67.694C107.798 68.97 106.136 69.956 104.164 70.652C102.23 71.3093 100.084 71.638 97.7256 71.638ZM97.7256 64.04C98.7696 64.04 99.6976 63.7887 100.51 63.286C101.322 62.7447 101.94 61.952 102.366 60.908C102.83 59.8253 103.062 58.4333 103.062 56.732C103.062 54.1413 102.559 52.2853 101.554 51.164C100.548 50.004 99.2722 49.424 97.7256 49.424C96.6816 49.424 95.7536 49.6753 94.9416 50.178C94.1296 50.6807 93.4916 51.4733 93.0276 52.556C92.5636 53.6 92.3316 54.992 92.3316 56.732C92.3316 59.284 92.8342 61.14 93.8396 62.3C94.8449 63.46 96.1402 64.04 97.7256 64.04ZM129.31 71.638C126.874 71.638 124.709 71.0387 122.814 69.84C120.958 68.6413 119.489 66.9207 118.406 64.678C117.362 62.4353 116.84 59.7867 116.84 56.732C116.84 53.6 117.362 50.932 118.406 48.728C119.489 46.524 120.958 44.8227 122.814 43.624C124.709 42.4253 126.874 41.826 129.31 41.826C131.437 41.826 133.351 42.3287 135.052 43.334C136.754 44.3393 137.894 45.6347 138.474 47.22H137.836V34.808C137.836 33.1067 138.281 31.8113 139.17 30.922C140.06 30.0327 141.336 29.588 142.998 29.588C144.622 29.588 145.879 30.0327 146.768 30.922C147.696 31.8113 148.16 33.1067 148.16 34.808V66.302C148.16 68.0033 147.716 69.2987 146.826 70.188C145.976 71.0773 144.719 71.522 143.056 71.522C141.432 71.522 140.176 71.0773 139.286 70.188C138.397 69.2987 137.952 68.0033 137.952 66.302V62.996L138.59 65.838C138.049 67.578 136.908 68.9893 135.168 70.072C133.467 71.116 131.514 71.638 129.31 71.638ZM132.616 64.04C133.66 64.04 134.588 63.7887 135.4 63.286C136.212 62.7447 136.831 61.952 137.256 60.908C137.72 59.8253 137.952 58.4333 137.952 56.732C137.952 54.1413 137.45 52.2853 136.444 51.164C135.439 50.004 134.163 49.424 132.616 49.424C131.572 49.424 130.644 49.6753 129.832 50.178C129.02 50.6807 128.382 51.4733 127.918 52.556C127.454 53.6 127.222 54.992 127.222 56.732C127.222 59.284 127.725 61.14 128.73 62.3C129.736 63.46 131.031 64.04 132.616 64.04ZM164.813 71.638C162.338 71.638 160.308 71.1933 158.723 70.304C157.138 69.376 155.939 68.0033 155.127 66.186C154.354 64.3687 153.967 62.068 153.967 59.284V47.104C153.967 45.4027 154.412 44.1267 155.301 43.276C156.19 42.3867 157.466 41.942 159.129 41.942C160.792 41.942 162.068 42.3867 162.957 43.276C163.846 44.1267 164.291 45.4027 164.291 47.104V59.574C164.291 60.966 164.581 62.01 165.161 62.706C165.741 63.402 166.65 63.75 167.887 63.75C169.279 63.75 170.42 63.2473 171.309 62.242C172.198 61.2367 172.643 59.9027 172.643 58.24V47.104C172.643 45.4027 173.088 44.1267 173.977 43.276C174.866 42.3867 176.142 41.942 177.805 41.942C179.468 41.942 180.744 42.3867 181.633 43.276C182.522 44.1267 182.967 45.4027 182.967 47.104V66.302C182.967 69.782 181.304 71.522 177.979 71.522C176.355 71.522 175.098 71.0773 174.209 70.188C173.32 69.2987 172.875 68.0033 172.875 66.302V62.938L173.803 65.78C172.952 67.6747 171.754 69.1247 170.207 70.13C168.699 71.1353 166.901 71.638 164.813 71.638ZM203.533 71.638C200.324 71.638 197.52 71.0387 195.123 69.84C192.764 68.6413 190.928 66.9207 189.613 64.678C188.298 62.3967 187.641 59.7287 187.641 56.674C187.641 54.354 188.008 52.2853 188.743 50.468C189.478 48.612 190.541 47.046 191.933 45.77C193.364 44.494 195.046 43.5273 196.979 42.87C198.951 42.174 201.136 41.826 203.533 41.826C204.654 41.826 205.834 41.942 207.071 42.174C208.308 42.3673 209.584 42.754 210.899 43.334C211.827 43.682 212.465 44.2233 212.813 44.958C213.2 45.654 213.354 46.408 213.277 47.22C213.238 48.032 213.006 48.7667 212.581 49.424C212.194 50.0813 211.634 50.526 210.899 50.758C210.203 50.99 209.41 50.8933 208.521 50.468C207.902 50.1587 207.245 49.946 206.549 49.83C205.892 49.6753 205.254 49.598 204.635 49.598C203.591 49.598 202.663 49.7527 201.851 50.062C201.078 50.3713 200.42 50.8353 199.879 51.454C199.338 52.034 198.912 52.7687 198.603 53.658C198.332 54.5473 198.197 55.5527 198.197 56.674C198.197 58.9167 198.758 60.676 199.879 61.952C201 63.228 202.586 63.866 204.635 63.866C205.254 63.866 205.892 63.808 206.549 63.692C207.206 63.5373 207.864 63.3053 208.521 62.996C209.41 62.5707 210.203 62.4933 210.899 62.764C211.595 62.996 212.156 63.4407 212.581 64.098C213.006 64.7553 213.238 65.49 213.277 66.302C213.316 67.0753 213.142 67.8293 212.755 68.564C212.368 69.26 211.711 69.782 210.783 70.13C209.507 70.71 208.25 71.0967 207.013 71.29C205.814 71.522 204.654 71.638 203.533 71.638ZM232.259 71.638C229.359 71.638 226.962 71.1933 225.067 70.304C223.211 69.4147 221.819 68.0807 220.891 66.302C219.963 64.4847 219.499 62.2227 219.499 59.516V50.062H217.527C216.29 50.062 215.323 49.7333 214.627 49.076C213.97 48.4187 213.641 47.4713 213.641 46.234C213.641 44.9967 213.97 44.0687 214.627 43.45C215.323 42.7927 216.29 42.464 217.527 42.464H219.499V38.868C219.499 37.1667 219.944 35.8713 220.833 34.982C221.723 34.0927 222.999 33.648 224.661 33.648C226.324 33.648 227.6 34.0927 228.489 34.982C229.379 35.8713 229.823 37.1667 229.823 38.868V42.464H234.579C235.855 42.464 236.822 42.7927 237.479 43.45C238.175 44.0687 238.523 44.9967 238.523 46.234C238.523 47.4713 238.175 48.4187 237.479 49.076C236.822 49.7333 235.855 50.062 234.579 50.062H229.823V59.168C229.823 60.5987 230.152 61.662 230.809 62.358C231.505 63.0153 232.588 63.344 234.057 63.344C234.599 63.344 235.121 63.286 235.623 63.17C236.126 63.054 236.59 62.996 237.015 62.996C237.634 62.9573 238.137 63.1507 238.523 63.576C238.91 63.9627 239.103 64.8713 239.103 66.302C239.103 67.462 238.929 68.448 238.581 69.26C238.233 70.0333 237.615 70.594 236.725 70.942C236.184 71.1353 235.449 71.29 234.521 71.406C233.593 71.5607 232.839 71.638 232.259 71.638ZM264.85 71C263.033 71 261.641 70.536 260.674 69.608C259.746 68.6413 259.282 67.2687 259.282 65.49V35.62C259.282 33.8413 259.746 32.488 260.674 31.56C261.641 30.5933 263.033 30.11 264.85 30.11H276.218C283.333 30.11 288.824 31.8887 292.69 35.446C296.596 39.0033 298.548 44.03 298.548 50.526C298.548 53.774 298.046 56.674 297.04 59.226C296.035 61.7393 294.585 63.8853 292.69 65.664C290.796 67.404 288.456 68.738 285.672 69.666C282.927 70.5553 279.776 71 276.218 71H264.85ZM269.954 62.358H275.522C277.572 62.358 279.331 62.1067 280.8 61.604C282.308 61.1013 283.546 60.3667 284.512 59.4C285.518 58.4333 286.252 57.2153 286.716 55.746C287.219 54.2767 287.47 52.5367 287.47 50.526C287.47 46.5047 286.484 43.5467 284.512 41.652C282.54 39.7187 279.544 38.752 275.522 38.752H269.954V62.358ZM319.726 71.638C316.246 71.638 313.23 71.0387 310.678 69.84C308.165 68.6027 306.231 66.8627 304.878 64.62C303.525 62.3773 302.848 59.7287 302.848 56.674C302.848 53.7353 303.486 51.164 304.762 48.96C306.077 46.7173 307.855 44.9773 310.098 43.74C312.379 42.464 314.97 41.826 317.87 41.826C319.997 41.826 321.93 42.174 323.67 42.87C325.41 43.5273 326.899 44.5133 328.136 45.828C329.373 47.104 330.301 48.6507 330.92 50.468C331.577 52.2853 331.906 54.3153 331.906 56.558C331.906 57.3313 331.693 57.9113 331.268 58.298C330.843 58.646 330.166 58.82 329.238 58.82H311.49V53.948H324.366L323.438 54.702C323.438 53.2713 323.245 52.1113 322.858 51.222C322.471 50.3327 321.891 49.656 321.118 49.192C320.383 48.728 319.455 48.496 318.334 48.496C317.135 48.496 316.091 48.786 315.202 49.366C314.351 49.9073 313.694 50.7193 313.23 51.802C312.766 52.8847 312.534 54.238 312.534 55.862V56.384C312.534 59.1293 313.133 61.1013 314.332 62.3C315.569 63.46 317.464 64.04 320.016 64.04C320.867 64.04 321.833 63.9433 322.916 63.75C324.037 63.518 325.101 63.2087 326.106 62.822C327.111 62.4353 327.981 62.3773 328.716 62.648C329.451 62.88 330.011 63.3053 330.398 63.924C330.823 64.504 331.055 65.1807 331.094 65.954C331.133 66.6887 330.959 67.4233 330.572 68.158C330.185 68.854 329.547 69.3953 328.658 69.782C327.305 70.4007 325.855 70.8647 324.308 71.174C322.8 71.4833 321.273 71.638 319.726 71.638ZM347.722 71.638C346.021 71.638 344.281 71.5027 342.502 71.232C340.762 71 339.177 70.5553 337.746 69.898C336.779 69.5113 336.083 68.9893 335.658 68.332C335.271 67.6747 335.078 66.9787 335.078 66.244C335.117 65.5093 335.329 64.852 335.716 64.272C336.141 63.6533 336.683 63.228 337.34 62.996C338.036 62.7253 338.809 62.7447 339.66 63.054C341.284 63.634 342.734 64.0593 344.01 64.33C345.325 64.562 346.581 64.678 347.78 64.678C349.211 64.678 350.235 64.4847 350.854 64.098C351.473 63.6727 351.782 63.1313 351.782 62.474C351.782 61.894 351.569 61.4493 351.144 61.14C350.757 60.8307 350.197 60.618 349.462 60.502L343.024 59.458C340.627 59.0327 338.771 58.1627 337.456 56.848C336.141 55.4947 335.484 53.7353 335.484 51.57C335.484 49.5593 336.045 47.8387 337.166 46.408C338.326 44.9387 339.892 43.8173 341.864 43.044C343.875 42.232 346.175 41.826 348.766 41.826C350.506 41.826 352.091 41.9613 353.522 42.232C354.953 42.464 356.345 42.9087 357.698 43.566C358.549 43.914 359.148 44.4167 359.496 45.074C359.844 45.7313 359.979 46.4273 359.902 47.162C359.825 47.858 359.573 48.5153 359.148 49.134C358.761 49.714 358.22 50.12 357.524 50.352C356.828 50.5453 356.016 50.4873 355.088 50.178C353.812 49.6753 352.671 49.308 351.666 49.076C350.699 48.844 349.791 48.728 348.94 48.728C347.355 48.728 346.233 48.9407 345.576 49.366C344.919 49.7913 344.59 50.3327 344.59 50.99C344.59 51.4927 344.764 51.918 345.112 52.266C345.46 52.5753 346.001 52.788 346.736 52.904L353.174 54.006C355.649 54.3927 357.543 55.2433 358.858 56.558C360.211 57.834 360.888 59.574 360.888 61.778C360.888 64.91 359.689 67.346 357.292 69.086C354.895 70.7873 351.705 71.638 347.722 71.638ZM370.231 71.522C368.607 71.522 367.351 71.0387 366.461 70.072C365.572 69.1053 365.127 67.7133 365.127 65.896V47.568C365.127 45.7507 365.572 44.3587 366.461 43.392C367.351 42.4253 368.607 41.942 370.231 41.942C371.894 41.942 373.17 42.4253 374.059 43.392C374.987 44.3587 375.451 45.7507 375.451 47.568V65.896C375.451 67.7133 375.007 69.1053 374.117 70.072C373.228 71.0387 371.933 71.522 370.231 71.522ZM370.231 37.824C368.414 37.824 367.003 37.3987 365.997 36.548C365.031 35.6973 364.547 34.46 364.547 32.836C364.547 31.2507 365.031 30.0327 365.997 29.182C367.003 28.3313 368.414 27.906 370.231 27.906C372.126 27.906 373.557 28.3313 374.523 29.182C375.49 30.0327 375.973 31.2507 375.973 32.836C375.973 34.46 375.49 35.6973 374.523 36.548C373.557 37.3987 372.126 37.824 370.231 37.824ZM395.592 82.078C393.465 82.078 391.474 81.9233 389.618 81.614C387.762 81.3433 386.157 80.9373 384.804 80.396C383.682 80.0093 382.89 79.4487 382.426 78.714C381.962 77.9793 381.749 77.206 381.788 76.394C381.826 75.582 382.039 74.8473 382.426 74.19C382.851 73.5327 383.412 73.0493 384.108 72.74C384.804 72.4693 385.577 72.4887 386.428 72.798C388.129 73.494 389.676 73.9387 391.068 74.132C392.46 74.364 393.639 74.48 394.606 74.48C396.964 74.48 398.724 73.9773 399.884 72.972C401.082 72.0053 401.682 70.478 401.682 68.39V64.736H402.146C401.566 66.36 400.386 67.694 398.608 68.738C396.829 69.7433 394.896 70.246 392.808 70.246C390.256 70.246 388.032 69.666 386.138 68.506C384.243 67.3073 382.754 65.6447 381.672 63.518C380.628 61.3913 380.106 58.8973 380.106 56.036C380.106 53.8707 380.415 51.918 381.034 50.178C381.652 48.438 382.503 46.9493 383.586 45.712C384.707 44.4747 386.041 43.5273 387.588 42.87C389.173 42.174 390.913 41.826 392.808 41.826C394.973 41.826 396.906 42.3287 398.608 43.334C400.348 44.3393 401.508 45.654 402.088 47.278L401.508 49.656V47.104C401.508 45.4413 401.952 44.1653 402.842 43.276C403.77 42.3867 405.046 41.942 406.67 41.942C408.294 41.942 409.531 42.3867 410.382 43.276C411.271 44.1653 411.716 45.4413 411.716 47.104V67.172C411.716 72.1213 410.324 75.8333 407.54 78.308C404.756 80.8213 400.773 82.078 395.592 82.078ZM395.998 62.648C397.158 62.648 398.144 62.3967 398.956 61.894C399.768 61.3527 400.406 60.5987 400.87 59.632C401.334 58.6267 401.566 57.428 401.566 56.036C401.566 53.948 401.063 52.324 400.058 51.164C399.052 50.004 397.699 49.424 395.998 49.424C394.915 49.424 393.948 49.6947 393.098 50.236C392.247 50.7387 391.59 51.4927 391.126 52.498C390.7 53.4647 390.488 54.644 390.488 56.036C390.488 58.124 390.99 59.748 391.996 60.908C393.001 62.068 394.335 62.648 395.998 62.648ZM422.85 71.522C421.226 71.522 419.97 71.0773 419.08 70.188C418.191 69.2987 417.746 68.0033 417.746 66.302V47.104C417.746 45.4413 418.172 44.1653 419.022 43.276C419.912 42.3867 421.168 41.942 422.792 41.942C424.416 41.942 425.654 42.3867 426.504 43.276C427.355 44.1653 427.78 45.4413 427.78 47.104V49.83L427.142 47.452C428.07 45.6347 429.385 44.2427 431.086 43.276C432.826 42.3093 434.798 41.826 437.002 41.826C439.284 41.826 441.159 42.2707 442.628 43.16C444.098 44.0107 445.2 45.364 445.934 47.22C446.669 49.0373 447.036 51.338 447.036 54.122V66.302C447.036 68.0033 446.592 69.2987 445.702 70.188C444.813 71.0773 443.537 71.522 441.874 71.522C440.212 71.522 438.936 71.0773 438.046 70.188C437.157 69.2987 436.712 68.0033 436.712 66.302V54.528C436.712 52.788 436.403 51.5507 435.784 50.816C435.204 50.0813 434.334 49.714 433.174 49.714C431.628 49.714 430.39 50.2167 429.462 51.222C428.534 52.1887 428.07 53.5033 428.07 55.166V66.302C428.07 69.782 426.33 71.522 422.85 71.522ZM468.464 71.638C464.984 71.638 461.968 71.0387 459.416 69.84C456.903 68.6027 454.97 66.8627 453.616 64.62C452.263 62.3773 451.586 59.7287 451.586 56.674C451.586 53.7353 452.224 51.164 453.5 48.96C454.815 46.7173 456.594 44.9773 458.836 43.74C461.118 42.464 463.708 41.826 466.608 41.826C468.735 41.826 470.668 42.174 472.408 42.87C474.148 43.5273 475.637 44.5133 476.874 45.828C478.112 47.104 479.04 48.6507 479.658 50.468C480.316 52.2853 480.644 54.3153 480.644 56.558C480.644 57.3313 480.432 57.9113 480.006 58.298C479.581 58.646 478.904 58.82 477.976 58.82H460.228V53.948H473.104L472.176 54.702C472.176 53.2713 471.983 52.1113 471.596 51.222C471.21 50.3327 470.63 49.656 469.856 49.192C469.122 48.728 468.194 48.496 467.072 48.496C465.874 48.496 464.83 48.786 463.94 49.366C463.09 49.9073 462.432 50.7193 461.968 51.802C461.504 52.8847 461.272 54.238 461.272 55.862V56.384C461.272 59.1293 461.872 61.1013 463.07 62.3C464.308 63.46 466.202 64.04 468.754 64.04C469.605 64.04 470.572 63.9433 471.654 63.75C472.776 63.518 473.839 63.2087 474.844 62.822C475.85 62.4353 476.72 62.3773 477.454 62.648C478.189 62.88 478.75 63.3053 479.136 63.924C479.562 64.504 479.794 65.1807 479.832 65.954C479.871 66.6887 479.697 67.4233 479.31 68.158C478.924 68.854 478.286 69.3953 477.396 69.782C476.043 70.4007 474.593 70.8647 473.046 71.174C471.538 71.4833 470.011 71.638 468.464 71.638ZM490.37 71.522C488.669 71.522 487.354 71.0773 486.426 70.188C485.537 69.2987 485.092 68.0033 485.092 66.302V47.104C485.092 45.4413 485.518 44.1653 486.368 43.276C487.258 42.3867 488.514 41.942 490.138 41.942C491.762 41.942 493 42.3867 493.85 43.276C494.701 44.1653 495.126 45.4413 495.126 47.104V49.482H494.546C494.933 47.162 495.919 45.3253 497.504 43.972C499.128 42.6187 501.139 41.9033 503.536 41.826C504.658 41.7873 505.489 42.0773 506.03 42.696C506.61 43.276 506.92 44.378 506.958 46.002C506.958 47.394 506.668 48.496 506.088 49.308C505.508 50.12 504.406 50.6033 502.782 50.758L501.448 50.874C499.399 51.0673 497.91 51.6473 496.982 52.614C496.054 53.542 495.59 54.934 495.59 56.79V66.302C495.59 68.0033 495.146 69.2987 494.256 70.188C493.367 71.0773 492.072 71.522 490.37 71.522ZM513.753 71.348C512.013 71.348 510.621 70.826 509.577 69.782C508.572 68.738 508.069 67.3653 508.069 65.664C508.069 64.0013 508.572 62.6673 509.577 61.662C510.621 60.618 512.013 60.096 513.753 60.096C515.571 60.096 516.963 60.618 517.929 61.662C518.935 62.6673 519.437 64.0013 519.437 65.664C519.437 67.3653 518.935 68.738 517.929 69.782C516.963 70.826 515.571 71.348 513.753 71.348Z" fill="white"/>
</g>
</svg>
