<svg xmlns="http://www.w3.org/2000/svg" width="98" height="30" fill="none"><mask id="a" width="22" height="22" x="3" y="0" maskUnits="userSpaceOnUse" style="mask-type:luminance"><path fill="#fff" d="M3.55 0h21.258v21.258H3.551V0Z"/></mask><g mask="url(#a)"><mask id="b" width="22" height="22" x="3" y="0" maskUnits="userSpaceOnUse" style="mask-type:luminance"><path fill="#fff" d="M14.187 0C8.317 0 3.559 4.759 3.559 10.63c0 5.87 4.759 10.628 10.628 10.628 5.87 0 10.63-4.758 10.63-10.629C24.816 4.76 20.056 0 14.186 0Z"/></mask><g mask="url(#b)"><path fill="#EAB945" d="M3.559 0h21.257v21.258H3.56V0Z"/></g></g><mask id="c" width="26" height="22" x="4" y="8" maskUnits="userSpaceOnUse" style="mask-type:luminance"><path fill="#fff" d="M4.262 8.398H29.81v21.538H4.262V8.398Z"/></mask><g mask="url(#c)"><path fill="#4C4E51" d="M13.304 29.914c-2.3 0-4.602.011-6.903-.007-.888-.006-1.645-.584-1.896-1.359-.283-.867-.059-1.824.693-2.293.425-.265.996-.401 1.502-.406 4.148-.033 8.293-.004 12.44-.026 3.232-.016 5.784-2.159 6.424-5.33.785-3.898-2.192-7.646-6.17-7.709-2.862-.044-5.726-.008-8.588-.012-.881-.001-1.542-.39-1.947-1.18-.36-.711-.36-1.489.183-2.03.437-.435 1.11-.873 1.686-.884 3.181-.054 6.373-.129 9.542.093 4.523.317 8.284 3.782 9.265 8.216 1.457 6.597-3.48 12.853-10.213 12.924-2.004.02-4.011.003-6.018.003Z"/></g><mask id="d" width="22" height="22" x="0" y="0" maskUnits="userSpaceOnUse" style="mask-type:luminance"><path fill="#fff" d="M0 0h21.29v21.442H0V0Z"/></mask><g mask="url(#d)"><path fill="#4C4E51" d="M14.634 21.193c-1.87 0-3.763.186-5.605-.038-4.504-.548-8.39-4.706-8.865-9.248C-.342 7.064 2.486 2.436 6.898.76 8.887.006 10.93 0 12.988.08c1.095.043 1.888.992 1.88 2.045a2.064 2.064 0 0 1-1.894 2.046c-.744.065-1.496.024-2.247.03-3.612.026-6.476 2.75-6.52 6.367-.045 3.717 2.755 6.463 6.123 6.605 2.725.115 5.458.038 8.187.05.321 0 .645-.001.961.041 1.078.147 1.864 1.08 1.8 2.114-.065 1.05-.921 1.928-1.987 1.95-1.552.03-3.105.007-4.656.007v-.142Z"/></g><path fill="#4C4E51" d="M40.832 10.341c.83.365 1.246.804 1.246 1.32 0 .256-.057.497-.17.722-.114.22-.17.339-.17.353l-5.511 12.329c-.114.265-.21.466-.288.604a1.245 1.245 0 0 1-.368.405 1.02 1.02 0 0 1-.634.192c-.25 0-.622-.107-1.112-.317-.826-.365-1.239-.8-1.239-1.304 0-.34.673-1.946 2.02-4.82l-4.186-7.044c-.28-.46-.42-.805-.42-1.032 0-.451.378-.9 1.135-1.349.475-.28.847-.42 1.113-.42.269 0 .488.058.655.17.166.114.288.228.361.346.078.118.465.772 1.157 1.96a159.666 159.666 0 0 0 1.997 3.31c.069-.226.446-1.091 1.135-2.595.687-1.507 1.056-2.31 1.105-2.41.048-.097.128-.217.236-.36.186-.236.444-.354.774-.354.328 0 .717.1 1.164.294ZM43.195 6.857c0-.324.01-.567.03-.73.024-.162.084-.348.184-.56.195-.377.74-.567 1.636-.567.858 0 1.393.19 1.599.567.112.212.179.404.199.575.024.168.037.411.037.73v9.741c0 .507.04.826.125.958.083.133.267.2.553.2.289 0 .482.012.582.036.097.02.217.08.36.177.281.182.421.682.421 1.496 0 .88-.14 1.418-.42 1.614-.368.254-1.238.298-2.609.132-1.081-.142-1.783-.5-2.107-1.075-.394-.688-.59-1.78-.59-3.28V6.857ZM61.273 10.472c.731.433 1.098.895 1.098 1.385 0 .28-.14.667-.42 1.157l-4.355 7.472c-.144.236-.369.45-.678.642-.31.186-.616.28-.914.28-.3 0-.588-.074-.862-.222-.277-.147-.47-.296-.583-.449l-.184-.228-4.377-7.495c-.28-.46-.42-.84-.42-1.134 0-.505.363-.975 1.09-1.408.535-.31.955-.464 1.26-.464.31 0 .553.096.73.287.177.188.363.47.56.848l2.756 5.298 2.756-5.298a10 10 0 0 1 .347-.575c.077-.122.2-.243.368-.361.166-.118.39-.177.67-.177s.666.147 1.158.442ZM70.72 11.398c.082-.785.635-1.18 1.657-1.18.546 0 .951.045 1.216.133.27.085.457.232.56.442.107.207.172.391.192.553.018.162.03.405.03.73v7.361c0 .325-.012.568-.03.73a1.93 1.93 0 0 1-.177.552c-.197.365-.678.546-1.444.546-.763 0-1.273-.092-1.533-.28-.262-.192-.413-.468-.457-.833-.516.742-1.381 1.113-2.594 1.113-1.214 0-2.341-.553-3.382-1.658-1.037-1.11-1.555-2.397-1.555-3.862 0-1.462.523-2.744 1.57-3.846 1.046-1.105 2.192-1.658 3.441-1.658.475 0 .91.086 1.304.258.393.167.665.324.818.471.157.148.284.291.383.428Zm-3.832 4.377c0 .462.18.88.545 1.253.363.374.805.56 1.326.56.52 0 .953-.188 1.297-.568.343-.383.516-.8.516-1.252 0-.457-.168-.881-.501-1.275-.33-.393-.772-.59-1.326-.59-.551 0-.999.197-1.342.59-.344.394-.515.821-.515 1.282ZM86.136 6.448a1.09 1.09 0 0 1 .611-.464c.27-.088.605-.132 1.003-.132.401 0 .722.036.958.11.24.07.421.153.545.25.127.1.217.248.272.443.089.236.133.6.133 1.09v6.36c0 1.848-.578 3.53-1.731 5.047-.56.713-1.283 1.29-2.167 1.732-.884.442-1.863.663-2.933.663-1.072 0-2.046-.224-2.925-.67-.875-.446-1.588-1.035-2.137-1.769-1.135-1.488-1.703-3.17-1.703-5.048V7.73c0-.338.01-.589.03-.751.024-.162.09-.346.199-.553.112-.21.302-.357.567-.442.27-.088.629-.132 1.076-.132.452 0 .81.044 1.076.132.265.085.446.232.545.442.166.32.25.76.25 1.32v6.314c0 .855.21 1.67.635 2.44.21.394.525.71.943.95.422.236.921.354 1.496.354 1.026 0 1.79-.378 2.291-1.135.505-.755.76-1.632.76-2.63V7.597c0-.545.068-.928.206-1.15ZM91.332 7.728c0-.324.01-.567.03-.73.023-.162.092-.348.206-.56.195-.377.74-.567 1.636-.567.982 0 1.564.262 1.746.781.074.236.11.6.11 1.09v11.703c0 .335-.012.58-.036.736a1.67 1.67 0 0 1-.2.546c-.196.38-.743.567-1.642.567-.979 0-1.553-.265-1.725-.796-.084-.224-.125-.584-.125-1.076V7.728Z"/></svg>